/* XPM */
static char *d5b4e03c58de4b8587d5836540f79032QMzTIkukjqAWC5FH[] = {
/* columns rows colors chars-per-pixel */
"50 50 170 2 ",
"   c None",
".  c #3A7F6F",
"X  c #357E74",
"o  c #7D6642",
"O  c #656D5B",
"+  c #716953",
"@  c #4E7564",
"#  c #407C67",
"$  c #457E69",
"%  c #507662",
"&  c #517468",
"*  c #DD3E16",
"=  c #DE3E1B",
"-  c #FF2F05",
";  c #FF2E0A",
":  c #EF3606",
">  c #E73907",
",  c #EE360D",
"<  c #EB3A0C",
"1  c #E13D0B",
"2  c #F53605",
"3  c #FE3302",
"4  c #F33903",
"5  c #F93907",
"6  c #F4350A",
"7  c #FB3309",
"8  c #F43B0A",
"9  c #EA3513",
"0  c #E43C13",
"q  c #ED3913",
"w  c #E3371F",
"e  c #E33C1A",
"r  c #FB3111",
"t  c #D83C20",
"y  c #E43D24",
"u  c #975C37",
"i  c #9B5A3C",
"p  c #BF4A2A",
"a  c #AE522F",
"s  c #A0582E",
"d  c #B35029",
"f  c #B24E30",
"g  c #A0573E",
"h  c #A95239",
"j  c #CA4819",
"k  c #DB4114",
"l  c #DD421B",
"z  c #FD4F1B",
"x  c #FC511F",
"c  c #F5551E",
"v  c #C34A28",
"b  c #D34322",
"n  c #DC432A",
"m  c #DD4D28",
"M  c #DB4622",
"N  c #DA532D",
"B  c #D94E33",
"V  c #CD5832",
"C  c #CF593E",
"Z  c #CB543C",
"A  c #D25130",
"S  c #D85138",
"D  c #D15C3C",
"F  c #D45539",
"G  c #E54521",
"H  c #E14528",
"J  c #FE4E25",
"K  c #FE4E2C",
"L  c #EE552E",
"P  c #FD5125",
"I  c #F5532D",
"U  c #FE502B",
"Y  c #F5582F",
"T  c #F65326",
"R  c #E04E33",
"E  c #F44F31",
"W  c #FF4E31",
"Q  c #FF4E34",
"!  c #FC4E32",
"~  c #EC5534",
"^  c #E65B34",
"/  c #EA5836",
"(  c #E0573E",
")  c #EA553B",
"_  c #E35B3C",
"`  c #EB5B3A",
"'  c #E45532",
"]  c #F45331",
"[  c #F95130",
"{  c #FB5131",
"}  c #F15338",
"|  c #D3623F",
" . c #8A5F46",
".. c #965942",
"X. c #80624E",
"o. c #8E604B",
"O. c #866341",
"+. c #BD6C4E",
"@. c #BC6E52",
"#. c #AE7353",
"$. c #AA775A",
"%. c #9D7E6D",
"&. c #A37D63",
"*. c #CE5D46",
"=. c #DD5D42",
"-. c #E35C42",
";. c #C16B4F",
":. c #D46244",
">. c #DA6546",
",. c #DB6547",
"<. c #DF6249",
"1. c #D36A4F",
"2. c #C36A52",
"3. c #DE6D51",
"4. c #D66E5B",
"5. c #D4735C",
"6. c #DB7459",
"7. c #E16246",
"8. c #E2674A",
"9. c #E56753",
"0. c #EB6351",
"q. c #D37761",
"w. c #DE7F6B",
"e. c #DB7F70",
"r. c #1E8C7F",
"t. c #2F847B",
"y. c #32847E",
"u. c #769479",
"i. c #918669",
"p. c #9A836D",
"a. c #8D8979",
"s. c #0F8E86",
"d. c #0E8E89",
"f. c #118D86",
"g. c #1D8881",
"h. c #158E89",
"j. c #0C9787",
"k. c #06968C",
"l. c #09948C",
"z. c #069682",
"x. c #129384",
"c. c #029793",
"v. c #019B94",
"b. c #208D89",
"n. c #298284",
"m. c #1FBCAF",
"M. c #16BFB1",
"N. c #1DBEB6",
"B. c #17BEBB",
"V. c #1DBEBC",
"C. c #3AAEA8",
"Z. c #2FBDA0",
"A. c #2DB6AA",
"S. c #3CB1A6",
"D. c #33B6A1",
"F. c #2AB6B1",
"G. c #2DB8B0",
"H. c #679D89",
"J. c #4CA98F",
"K. c #55A88A",
"L. c #4BAC9A",
"P. c #52A693",
"I. c #60A088",
"U. c #62A286",
"Y. c #0FC4B1",
"T. c #05C4BE",
"R. c #0BC4BC",
"E. c #11C0B8",
"W. c #14C0B4",
"Q. c #07C5C4",
/* pixels */
"                                                                                                    ",
"                                                                                                    ",
"                                                                                                    ",
"                                                                                                    ",
"                                                                                                    ",
"                                                                                                    ",
"                        1.C Z *.q.                                e.5.4.4.w.                        ",
"                  F n 9 6 2 4 : , 0 m >.                    5.8.' L I I K I ' >.6.                  ",
"              N < 2 2 3 3 3 3 3 3 3 2 , y               3./ I I K K U K K K U I I ) 6.              ",
"            b q 2 3 3 3 3 3 3 3 3 3 7 7 6 0 A         >.] { W K I U K K K K K U K { ` >.            ",
"          l 2 - 3 3 3 3 3 3 3 3 3 7 ; 7 3 2 < B     =.T P W Q K U U K K K K K K K K U J _           ",
"        w 2 3 3 3 3 3 3 3 3 3 3 3 7 - 3 3 3 3 , G ` I K K I K K K K K K K K K U K U K K K -.        ",
"      y 7 2 2 3 3 3 3 3 3 3 3 3 3 3 3 2 3 ; ; 2 4 z U Q K K J P P P P U U U P P P P U { K ! 8.      ",
"    D , 3 2 2 7 3 3 3 3 3 3 3 3 3 3 2 2 3 7 ; - 8 J W ! P J P U P U U U U P P P P P P K U K _       ",
"    M 2 2 2 7 7 3 3 3 3 3 3 3 3 3 3 3 3 2 3 7 7 7 K U K P P K K K U U U U U P P U P K K U U ~ 3.    ",
"    9 3 3 7 2 3 3 3 3 3 3 3 3 3 3 3 3 3 3 3 3 3 2 J P T W K K P P U U U U U U U U U W K K U I -.    ",
"  S 6 3 7 3 2 3 3 3 3 3 3 3 3 3 3 3 7 2 3 3 2 6 < I P I W K K W P P U P P U U U U P U K K P K ~     ",
"  R 2 3 3 3 3 3 3 3 3 3 3 3 3 3 3 3 3 3 7 3 k f o.p.@._ W K U I K K P P U U U U P P P K K P K ]     ",
"  H 2 2 3 3 3 3 3 3 3 3 3 3 3 3 3 3 3 3 2 *  .# b.F.L.&.~ U I U K K U U U U U U U P U K P P P { 9.  ",
"  G 2 3 3 3 7 3 3 3 3 3 3 3 3 3 3 3 7 3 4 d . z.v.T.R.K.| K { { P P U U U U U U U P K K P P P K 0.  ",
"  G 2 7 3 3 7 3 3 3 3 3 3 3 3 3 3 3 7 2 : u g.k.v.R.Q.Z.;.K { W P P P U U U U U U P K K U P P I 0.  ",
"  m 2 7 3 3 7 3 3 3 3 3 3 3 3 3 3 7 7 3 , g n.l.v.R.Q.D.2.K K U P P U U U P P P U P K K U P J ]     ",
"  V 8 3 3 3 3 3 3 3 3 3 3 3 3 3 3 7 ; 3 2 v & s.v.T.B.H.:.U U K U U U U U U P P U P K K I P K /     ",
"    > 3 7 3 2 3 3 3 3 3 3 3 3 3 3 3 3 3 3 0 s % h.N.U.+.~ P P P K K U U U U P P U P K K I K W -.    ",
"    l 7 3 3 3 7 7 3 3 3 3 3 3 3 3 3 3 3 7 2 1 i y.C.#.I K P P P K K U U U U U U U K K K U K ! <.    ",
"    D 9 2 3 3 7 3 3 3 3 3 3 3 3 3 3 3 3 3 3 , h t.S.+.I x P K K P P U U U U U U U U K U U K )       ",
"      = 7 3 3 3 3 3 3 3 3 3 3 3 3 3 7 7 3 3 0 ..r.A.$.] P K K K K U U U U U U P P P K K U ] =.      ",
"        e 7 2 2 3 3 3 3 3 3 3 3 3 3 7 7 3 3 = X.x.m.i.} P K I U K K U P U P K K K U U K P _         ",
"          0 2 3 3 3 3 3 3 3 3 3 3 3 3 3 3 7 b O j.M.u.) J K I U K K U P K K K K K { U P L           ",
"            0 3 3 3 3 3 3 3 3 3 3 3 3 3 3 7 v @ l.W.I.-.P K I I P K U P K K K K U K I ^             ",
"              0 6 2 7 3 3 3 3 3 3 3 3 3 3 6 a X k.E.L.:.P P U P P P U K K P K U I ] _               ",
"                0 6 2 3 3 3 3 3 3 3 7 3 3 , u g.c.R.S.+.I P U K P U U K K K U { E _                 ",
"                  0 6 3 3 3 3 2 3 3 3 3 3 0 O.s.c.Q.G.#.] I U K K U P K P P U { )                   ",
"                  B q 3 3 3 3 7 2 3 3 3 3 k + d.v.T.V.%.I I I J K I P P U I K ~                     ",
"                      0 2 3 3 3 7 7 3 ; ; b O f.c.Y.N.a.L U Q K K K K K K U _                       ",
"                        * 5 7 3 3 3 3 7 7 j o @ $ J.P.p.~ K W K P P K U U ^                         ",
"                          * 2 2 3 7 3 3 3 4 0 t b =.:._ I K K W { I K ] -.                          ",
"                            l 2 3 3 2 3 3 3 - 7 6 K U U U P J K P I I _                             ",
"                              = r 7 2 3 7 3 3 2 4 x I W K J K W K ! -.                              ",
"                                e 2 2 2 7 7 3 3 7 J Q Q U P U K { -.                                ",
"                                  e 7 2 3 3 3 3 2 P K K P U U I _                                   ",
"                                    y 6 2 2 3 3 4 c J J P I I `                                     ",
"                                      e 2 7 3 3 2 J K K P L =.                                      ",
"                                        l 7 7 7 7 K K K ] 7.                                        ",
"                                          e 6 7 6 J U ] 7.                                          ",
"                                            = 2 8 J Y >.                                            ",
"                                              = 6 I _                                               ",
"                                                n (                                                 ",
"                                                                                                    ",
"                                                                                                    "
};
