/* XPM */
static char *_75d10dd7cd24748b0b741d36b81353e2x1YkMqQTHdWnzOX[] = {
/* columns rows colors chars-per-pixel */
"50 50 169 2 ",
"   c None",
".  c #7C3C1E",
"X  c #6D3E2B",
"o  c #763E26",
"O  c #7B3C22",
"+  c #763E29",
"@  c #7A3D29",
"#  c #4C443A",
"$  c #554333",
"%  c #584538",
"&  c #524539",
"*  c #6B432C",
"=  c #754021",
"-  c #72412B",
";  c #6E4433",
":  c #664638",
">  c #674333",
",  c #724330",
"<  c #504944",
"1  c #6A5448",
"2  c #823B1C",
"3  c #813E20",
"4  c #844324",
"5  c #8E4828",
"6  c #8A4224",
"7  c #954825",
"8  c #954C2C",
"9  c #9C4D27",
"0  c #8B533A",
"q  c #915234",
"w  c #9E5131",
"e  c #9F5A3D",
"r  c #A3532C",
"t  c #A35632",
"y  c #AA5737",
"u  c #A75837",
"i  c #AB5934",
"p  c #A5573A",
"a  c #A3593B",
"s  c #AF5D38",
"d  c #B75E35",
"f  c #BA6236",
"g  c #BE653D",
"h  c #C1613E",
"j  c #C16A3C",
"k  c #CD713F",
"l  c #865846",
"z  c #8F5C46",
"x  c #975D44",
"c  c #995D43",
"v  c #BB4B41",
"b  c #BF5E46",
"n  c #8B604D",
"m  c #976046",
"M  c #98624D",
"N  c #876454",
"B  c #BC6242",
"V  c #BD6A41",
"C  c #B26546",
"Z  c #B1704E",
"A  c #A86951",
"S  c #BD7857",
"D  c #947A6B",
"F  c #9A7969",
"G  c #937B70",
"H  c #F55E5B",
"J  c #FB5E5C",
"K  c #C06743",
"L  c #C36E44",
"P  c #CD6F45",
"I  c #CE6E4A",
"U  c #D26E44",
"Y  c #D06E48",
"T  c #C67246",
"R  c #CC7145",
"E  c #C4734B",
"W  c #CB724B",
"Q  c #D17245",
"!  c #D47449",
"~  c #D57B4B",
"^  c #DC7E4B",
"/  c #DD7945",
"(  c #CD6054",
")  c #C37452",
"_  c #CD7B51",
"`  c #C57959",
"'  c #C97553",
"]  c #DA7E51",
"[  c #D67C55",
"{  c #E07C49",
"}  c #F1625D",
"|  c #D3716B",
" . c #ED6668",
".. c #EB6567",
"X. c #F26363",
"o. c #968176",
"O. c #9A8274",
"+. c #D98047",
"@. c #D6804D",
"#. c #D9804B",
"$. c #CE845E",
"%. c #D38154",
"&. c #D88354",
"*. c #D4845A",
"=. c #E2B35A",
"-. c #CB8B6D",
";. c #C48562",
":. c #D28B65",
">. c #DB9069",
",. c #C89378",
"<. c #D69370",
"1. c #D7B766",
"2. c #DAB665",
"3. c #D6B66A",
"4. c #D8B46B",
"5. c #D3B773",
"6. c #D5B970",
"7. c #BDA798",
"8. c #B1AB9F",
"9. c #D39D84",
"0. c #D9A488",
"q. c #DEA88C",
"w. c #CDAC9D",
"e. c #E4B49B",
"r. c #E6B89A",
"t. c #DFB6A3",
"y. c #D4BCAF",
"u. c #C0C1BB",
"i. c #D4C2B7",
"p. c #EBCEBD",
"a. c #BDD5D5",
"s. c #BCD9D7",
"d. c #BBD7D9",
"f. c #BBD9D9",
"g. c #C1CCC7",
"h. c #C7D3CD",
"j. c #D2D1CF",
"k. c #C2D6D5",
"l. c #C1D8D6",
"z. c #C5D7D9",
"x. c #CCDDDD",
"c. c #C4D9D8",
"v. c #DAD9D6",
"b. c #E1D3CB",
"n. c #DCE0DF",
"m. c #EDE5DD",
"M. c #F6E7DC",
"N. c #DEE5E5",
"B. c #D4E1E3",
"V. c #E1E7E5",
"C. c #E5EBEA",
"Z. c #EBEFED",
"A. c #EAEBE7",
"S. c #F9EDE4",
"D. c #FCF6ED",
"F. c #F7F5EB",
"G. c #EFF4F4",
"H. c #F3F6F6",
"J. c #FCF7F0",
"K. c #F4F8F7",
"L. c #FBFAF5",
"P. c #F4FBFB",
"I. c #FAFDFB",
"U. c #FDFEFB",
"Y. c #FCFDF9",
"T. c #FAFEFD",
"R. c #FDFEFD",
"E. c gray99",
"W. c #FDFEFC",
/* pixels */
"                                                                                                    ",
"                                                1.1.6.=.=.2.                                        ",
"                                              5.          3.                                        ",
"                                                2.3.        =.                                      ",
"                                                    5.2.6.4.    f.f.f.                              ",
"                                                    -             f.f.d.                            ",
"                                                O O @ O ;         f.k.f.                            ",
"                                            * + @ @ O @ @           s.s.f.f.f.f.  P.P.              ",
"                                          X o + . O . O O + O - ,   s.s.s.s.s.f.d.R.Y.T.            ",
"                                          , . O O O O O O O O . @   s.s.s.s.s.f.a.T.R.R.            ",
"                              Y.        + 2 O @ 3 O O . O O O O o N s.s.s.s.s.f.f.P.R.T.            ",
"                                o.      O O 8 W ~ ^ 3 O O O O O + u.f.s.s.s.s.f.d.T.K.R.  x.        ",
"                                D       X O _ r 9 _ 7 O . O O O + h.f.s.s.s.f.s.l.R.C.R.P.K.B.      ",
"                                          B #.] ~ / 5 s V L O O O D s.a.f.f.f.l.T.Y.V.R.R.R.R.      ",
"                                  o.    g R ^ i T ~ 4 V _ ^ 8 O O O g.f.f.z.K.R.n.K.R.R.R.R.R.      ",
"                                P.  & C h ~ ^ ~ B B K ^ ^ ^ 3 O O @ 8.c.K.R.R.R.C.R.R.R.R.R.R.      ",
"                                P.  % A L ] ^ ! B b g ^ g j O . 3 + y.K.Y.K.L.G.I.Y.R.R.R.R.R.      ",
"                                P.      ;.^ ^ r h h P ^ ^ 4 O o = o L.K.R.C.R.R.R.R.R.H.N.R.P.      ",
"                              P.      $ Z V d ^ ^ ^ ^ ^ ^ O . N G L.R.Y.K.R.R.R.R.R.R.V.K.x.        ",
"                            P.        #   E L ^ ^ ^ ^ @.^ O O h.x.Y.Y.R.R.R.R.R.Y.R.R.Y.N.k.        ",
"                          P.                @.^ ^ ^ #.{ / L w.x.T.P.R.R.R.R.R.Y.V.R.R.R.R.a.        ",
"                        R.                    %.%.*.~ E Q ] ~ m.T.Y.Y.G.C.R.R.K.K.R.R.R.K.          ",
"                                        <         z W R ^ ^ ^ ,.S.b.Z.N.C.R.Y.R.x.R.R.I.            ",
"        |             P.                $       c a Y Q ^ ^ ^ W -.S 9.i.L.R.Y.Y.k.G.H.x.            ",
"      X.}                 c       m x x   q a u y d Y Q ^ ^ ^ ! U T W W   j.a.                      ",
"   .H (                 [ w w w w r w w ^ ^ / g f f R Q ^ ^ ^ ! T I R Y R J.                        ",
"  X.H v O * * - - - ; q R w 8 8 8 7 8 8 ^ ^ #.^ ^ ^ ~ Q ^ ^ ^ ! T Y R E -.Y.R.                      ",
"      J J               ` e a a u p a e ^ ^ #.^ ^ ^ ^ ^ ^ ^ ^ Q Y W Y W R.R.A.v.                    ",
"      ..X.            R.                  0 %.^ ^ ^ ^ ^ ^ ^ ^ Y R T 9.D.Y.R.v.F.L.                  ",
"                                        :       &.^ ^ ^ ^ ^ ^ T Y 0.R.R.R.R.R.R.R.P.                ",
"                        T.              >         *.+.^ ^ ^ ^ Q W J.R.R.Y.R.R.R.R.R.                ",
"                          R.                          W I k ' S.R.R.R.R.R.R.R.R.R.T.                ",
"                            R.T.                        -.p.R.R.Y.M.>.&.>.M.R.R.R.R.                ",
"                              R.      :                 D.Y.R.R.L.*.^ ^ ^ :.Y.R.Y.T.                ",
"                                P.    1                   R.R.e.^ ^ ^ ^ ^ ^ q.L.R.                  ",
"                                  Y.                        D.^ ^ ^ ^ ^ ^ ^ <.Y.t.R W )             ",
"                                  R.7.                      *.^ ^ ^ ^ ^ ^ ^ r.e.I Q Q R T R W       ",
"                                  Y.O.                      &.^ ^ ^ ^ ^ ^ ^ $.R Q T T R Y R I       ",
"                                  F M                       ^ ^ ^ ^ ^ ^ ^ ~ E T T Y R P E   T )     ",
"                                  l                         Y P Q ^ ^ ^ %.  W W W E E         t     ",
"                                  n                         P Y P ^ ^ ^ %.                    8     ",
"                                Y.                          T W W ! +.^ @.                          ",
"                              Y.D.                            U Q R ^ ^ ^ %.                        ",
"                                                                E ~ ^ ^ ^ ^                         ",
"                                                                  ^ ^ +.^ ^ ^ $.                    ",
"                                                                        %.@.@.+.                    ",
"                                                                            ^ ]                     ",
"                                                                            ^ $.                    ",
"                                                                            t 6                     ",
"                                                                                                    "
};
