/* XPM */
static char *ff1f9432dd3e494ec1c3eda9889eeb87j3GrsJSJ1SbuqFZn[] = {
/* columns rows colors chars-per-pixel */
"50 50 247 2 ",
"   c None",
".  c #EDB40D",
"X  c #EEBE0E",
"o  c #F5B700",
"O  c #F6B600",
"+  c #F6B601",
"@  c #F9B300",
"#  c #FBB301",
"$  c #FCB300",
"%  c #F9B400",
"&  c #F8B401",
"*  c #FAB500",
"=  c #F8B602",
"-  c #FAB207",
";  c #F9B406",
":  c #F5B800",
">  c #FDBA00",
",  c #F8BC02",
"<  c #F9BB06",
"1  c #FDB906",
"2  c #FFB906",
"3  c #FBBF06",
"4  c #F9B00B",
"5  c #FDB10E",
"6  c #F8B70D",
"7  c #FABB09",
"8  c #FCBD0A",
"9  c #F9BF0F",
"0  c #FCAF1D",
"q  c #E7B614",
"w  c #EFB415",
"e  c #EDB714",
"r  c #EABB1E",
"t  c #F2B311",
"y  c #F1B411",
"u  c #F3B611",
"i  c #F2B316",
"p  c #F2B317",
"a  c #F7B215",
"s  c #F4B217",
"d  c #F0B414",
"f  c #F1B415",
"g  c #F0B515",
"h  c #F7BB10",
"j  c #F6BC11",
"k  c #F0BE15",
"l  c #F3B619",
"z  c #F1B220",
"x  c #F6BB26",
"c  c #EEC20C",
"v  c #FAC003",
"b  c #FBC105",
"n  c #FBCF02",
"m  c #FFCD04",
"M  c #FECE05",
"N  c #FECD07",
"B  c #FECF07",
"V  c #FFCF07",
"C  c #F2C10B",
"Z  c #F1C00D",
"A  c #F8C00A",
"S  c #FDCA09",
"D  c #FFCB08",
"F  c #FFCB0B",
"G  c #FECD08",
"H  c #FECD09",
"J  c #FFCD09",
"K  c #FFCF08",
"L  c #FECE09",
"P  c #FECF09",
"I  c #FFCF09",
"U  c #FECC0A",
"Y  c #FECD0A",
"T  c #FFCD0A",
"R  c #FDCF0B",
"E  c #FFCE0A",
"W  c #FFCF0B",
"Q  c #FFC80D",
"!  c #FFC90E",
"~  c #FFCB0F",
"^  c #FACE0F",
"/  c #FBCE0F",
"(  c #FDCC0C",
")  c #FDCD0D",
"_  c #FDCF0C",
"`  c #FECE0C",
"'  c #FFCE0C",
"]  c #FFCC0E",
"[  c #FFCD0E",
"{  c #FFCD0F",
"}  c #FFCE0E",
"|  c #F7D602",
" . c #FBD301",
".. c #FFD100",
"X. c #FED001",
"o. c #FFD101",
"O. c #FDD200",
"+. c #FCD201",
"@. c #FCD003",
"#. c #FDD003",
"$. c #FED003",
"%. c #FDD203",
"&. c #FED202",
"*. c #FED203",
"=. c #FBD400",
"-. c #F9D402",
";. c #F9D204",
":. c #FAD305",
">. c #FAD006",
",. c #FBD006",
"<. c #FAD007",
"1. c #FBD007",
"2. c #FBD107",
"3. c #FAD207",
"4. c #FCD104",
"5. c #FED004",
"6. c #FFD004",
"7. c #FED005",
"8. c #FFD105",
"9. c #FDD106",
"0. c #FDD107",
"q. c #FFD007",
"w. c #FED107",
"e. c #FFD307",
"r. c #FCD704",
"t. c #F6D30A",
"y. c #F7D30B",
"u. c #F7D30E",
"i. c #F3D40D",
"p. c #F9D109",
"a. c #FBD108",
"s. c #FBD109",
"d. c #FBD209",
"f. c #FAD00B",
"g. c #FED108",
"h. c #FED009",
"j. c #FDD209",
"k. c #FDD309",
"l. c #FDD10B",
"z. c #FCD20B",
"x. c #FBD40A",
"c. c #F9D00D",
"v. c #FAD20C",
"b. c #FBD20D",
"n. c #F9D00F",
"m. c #FBD10E",
"M. c #FDD00C",
"N. c #FDD10C",
"B. c #FED20C",
"V. c #FDD00E",
"C. c #FDD10E",
"Z. c #F5C212",
"A. c #FEC316",
"S. c #FFC416",
"D. c #F7CF11",
"F. c #F7CC16",
"G. c #FFC910",
"H. c #FECA10",
"J. c #FFCA10",
"K. c #FFCA11",
"L. c #FFCB11",
"P. c #FFC812",
"I. c #FFCA12",
"U. c #FBCD10",
"Y. c #F9CE11",
"T. c #F9CF12",
"R. c #FACF13",
"E. c #FCCD10",
"W. c #FDCC11",
"Q. c #FECC12",
"!. c #FFCC13",
"~. c #FFCF13",
"^. c #F8CA14",
"/. c #FFC814",
"(. c #FCC916",
"). c #FFC916",
"_. c #FACE15",
"`. c #FDC718",
"'. c #FBC61D",
"]. c #FCC71F",
"[. c #FFC818",
"{. c #FCC81B",
"}. c #FEC81A",
"|. c #FACC1B",
" X c #FDCD1B",
".X c #F5D310",
"XX c #F7D715",
"oX c #F8D213",
"OX c #FED012",
"+X c #FDD511",
"@X c #FED611",
"#X c #F8D115",
"$X c #F6D519",
"%X c #F3D11E",
"&X c #F5D31C",
"*X c #FCD21A",
"=X c #F9D61A",
"-X c #FCD41F",
";X c #FDF90A",
":X c #FCF41D",
">X c #E5C623",
",X c #EEC222",
"<X c #EFCF23",
"1X c #EEC128",
"2X c #F6CE26",
"3X c #FECA20",
"4X c #FCC926",
"5X c #F9CD26",
"6X c #F4CD29",
"7X c #F3C92E",
"8X c #FFC928",
"9X c #EAD026",
"0X c #F2D021",
"qX c #F5D120",
"wX c #F1D124",
"eX c #F7D226",
"rX c #F9D022",
"tX c #FAD721",
"yX c #F9D625",
"uX c #FCD927",
"iX c #F2D02A",
"pX c #F5D22E",
"aX c #F6D22E",
"sX c #F7D52C",
"dX c #F9D228",
"fX c #FBDD2C",
"gX c #E5CE3E",
"hX c #EBC93A",
"jX c #F0C132",
"kX c #F3C833",
"lX c #F6CC36",
"zX c #FCD430",
"xX c #FCD334",
"cX c #F6DE3D",
"vX c #FFE123",
"bX c #FFE725",
"nX c #FCE821",
"mX c #FDEC25",
"MX c #FDE12A",
"NX c #FEE22A",
"BX c #FFE62A",
"VX c #F7ED2D",
"CX c #FFEC28",
"ZX c #FFEE2A",
"AX c #FFE232",
"SX c #FFE533",
"DX c #F6E539",
/* pixels */
"                                                                                                    ",
"                                                                                                    ",
"                                                                                                    ",
"                                                                                                    ",
"                                                                                                    ",
"                                                                                                    ",
"                                                                                                    ",
"                                                                                                    ",
"                                                                                                    ",
"                                                                                                    ",
"                                                                                                    ",
"                                                                                                    ",
"                                                                                                    ",
"                                                                                                    ",
"                }.W | T.wX                                                                          ",
"              w.$.I.Z.1.I.MX                                                                        ",
"            n.w.k       =X:XDX                                                                      ",
"          yXl.1.          ZXMX                                                                      ",
"          tXw.xX          fXn.                                                                      ",
"          -X$.sX          .X!.                                                                      ",
"            $.1.          =.n.                                                                      ",
"    B. ._.l.l.+X5X    6XV W iX      hX1X                                                            ",
"  $XT.    ^.1.AXp. .n W l.p.        F.9                                                             ",
"  W         SX;XbX+XV $.W ).V ).I.D S.3 |.T.Q Q Q I.I.I.I.Q Q Q Q I.I.I.I.I.I.I.I.I.I.I.I.!.W 9X    ",
"  $.        u.ZXXXB.$.w.w.$.Q D V !.}.8 $.}.} } } } } } } } } } } } } } } } } } } } } } } B.W 0X    ",
"  W &X    rXW vX1.w.B.W l.b y l i y `.A 4 e i i i f f f f e s t f @ = O = = @ O O : $ ; = . s       ",
"    !.r.} $.w.} D q   X } =.        7Xc                           '.W $.p.W w.p.w.W w.W /           ",
"      C h   w.l.        >Xi.D.                                        $.OXqXV } %XW B.T.2X          ",
"          eX$.sX        VXnX/                                         } gX  ).pX   XW               ",
"          4Xn.uX        mXBXoX                                    kX*Xt.8X  1.dX  3X1.<XlX          ",
"            $.1.        cXt.A.                                    ].7 , ,X  j jX  x < > Z           ",
"            v x.#X    pXw.$.r                                                                       ",
"              2 !.} n.p.W 0                                                                         ",
"                6 5 2 - z                                                                           ",
"                                                                                                    ",
"                                                                                                    ",
"                                                                                                    ",
"                                                                                                    ",
"                                                                                                    ",
"                                                                                                    ",
"                                                                                                    ",
"                                                                                                    ",
"                                                                                                    ",
"                                                                                                    ",
"                                                                                                    ",
"                                                                                                    ",
"                                                                                                    ",
"                                                                                                    ",
"                                                                                                    ",
"                                                                                                    "
};
