/* XPM */
static char *de5b25c0f9044889e23a05b0156ee116ACEORclQgX8YaFgS[] = {
/* columns rows colors chars-per-pixel */
"50 50 131 2 ",
"   c #0172DF",
".  c #0175E2",
"X  c #017CE5",
"o  c #017EE8",
"O  c #0182E6",
"+  c #018AE7",
"@  c #0185EA",
"#  c #018CED",
"$  c #0095ED",
"%  c #0194EC",
"&  c #0294EC",
"*  c #0194EE",
"=  c #0096EF",
"-  c #0397EE",
";  c #0297EF",
":  c #0494EC",
">  c #0795ED",
",  c #0697EC",
"<  c #0797EE",
"1  c #0192EC",
"2  c #0895E9",
"3  c #0994EA",
"4  c #0A94EB",
"5  c #0996EB",
"6  c #0C94E9",
"7  c #0D96E9",
"8  c #0A97EE",
"9  c #0B96EB",
"0  c #0198EC",
"q  c #0599ED",
"w  c #0699EE",
"e  c #0598EE",
"r  c #0399ED",
"t  c #0898EB",
"y  c #0B9BEB",
"u  c #0A9AEC",
"i  c #0A98EE",
"p  c #0E9AEE",
"a  c #0B9AED",
"s  c #1797EB",
"d  c #1297ED",
"f  c #1397EF",
"g  c #1497EC",
"h  c #1996EC",
"j  c #1698EA",
"k  c #119AEE",
"l  c #1799EC",
"z  c #159AED",
"x  c #179CEF",
"c  c #139CED",
"v  c #1F98EA",
"b  c #1B9AEC",
"n  c #1F99EC",
"m  c #1C9BEC",
"M  c #189DEF",
"N  c #1D9CEE",
"B  c #1D9DEE",
"V  c #1B9CED",
"C  c #018DF0",
"Z  c #0193F1",
"A  c #039AF2",
"S  c #0C9CF1",
"D  c #159DF1",
"F  c #1A9BF0",
"G  c #1B9EF3",
"H  c #1E9DF0",
"J  c #1B9EF1",
"K  c #2198E9",
"L  c #229AEB",
"P  c #279BEB",
"I  c #259CEB",
"U  c #239BEC",
"Y  c #2599ED",
"T  c #249CED",
"R  c #279FEF",
"E  c #249DED",
"W  c #299CEF",
"Q  c #2B9DEC",
"!  c #339CEF",
"~  c #369EEC",
"^  c #379EEC",
"/  c #379EEE",
"(  c #319DED",
")  c #269AF1",
"_  c #239DF2",
"`  c #249EF1",
"'  c #2A9FF1",
"]  c #369FF1",
"[  c #17A0EF",
"{  c #1FA1EF",
"}  c #02A1F3",
"|  c #09A1F7",
" . c #16A1F2",
".. c #1CA1F3",
"X. c #24A0EE",
"o. c #2BA1EF",
"O. c #30A0EF",
"+. c #32A2EF",
"@. c #3FA5EF",
"#. c #3DA5EF",
"$. c #23A1F1",
"%. c #29A1F0",
"&. c #2CA1F1",
"*. c #2CA3F1",
"=. c #30A0F1",
"-. c #31A1F1",
";. c #33A1F0",
":. c #37A3F0",
">. c #33A3F2",
",. c #3FA3F3",
"<. c #3FA4F1",
"1. c #3BA5F1",
"2. c #3EA9F3",
"3. c #49A7EF",
"4. c #41A2F2",
"5. c #42A6F1",
"6. c #48A7F3",
"7. c #4AA7F1",
"8. c #44A9F2",
"9. c #4FA9F1",
"0. c #4BAAF2",
"q. c #55ACF3",
"w. c #55ACF5",
"e. c #52ACF3",
"r. c #5BAEF3",
"t. c #53B0F3",
"y. c #5DB1F4",
"u. c #62B3F5",
"i. c #6AB5F5",
"p. c #71BAF5",
"a. c #7BBDF5",
/* pixels */
"+ + 1 1 1 + 3 , 1 1 1 1 + + O O + 1 1 w & + + + + + + 1 + 1 % 0 & 1 # u 1 # 1 # 1 1 u l c 1 , , # Z ",
"1 1 + 1 3 b Q T , 1 , 1 + + + O + & % 1 + + + O O O O + + # 1 1 + # # # + 1 & 1 # Z & & , 1 # 1 9 F ",
"+ 1 + % s U / v 1 t 1 + + + + O + 1 1 1 1 + + O # + + + + + @ O X # O + + # 1 # # 1 & # + 1 & 1 & l ",
"+ 1 : 1 : I ^ ^ K : 1 + + + + + + + + + + + + + O + O + + + + # O X O X + # + + 1 1 1 + # 1 d 1 B ' ",
"+ 1 1 1 3 l 1 6 + + + 1 + + + 1 1 O O + + + + 1 + X O + + + # # + O o X @ # 1 , 1 1 # + 1 J w H k p ",
"+ + + + 1 , 1 + + + + + 1 + 1 & 1 + O O + + + + + O O + 1 1 # # O X X X + + Z & 1 1 1 1 w ( k ] t ) ",
"+ + 1 6 v d : 1 + + + + + + + 1 1 + + + + + + + O O O + # # # + + O O X + # # 1 1 # 1 ;.` T ;.;.%.7.",
"# + 3 K Y l , + + + + + + + + + + 1 1 + + 1 # O O O + + + + + O O + O O O + + 1 1 1 9 B u 4.<.;.,.w.",
"+ + j P n 1 1 1 + + + + + + + 1 1 % 1 + 1 1 + + X X + + + # # + O O O O O + # # # # M *.<.0.7.;.+.q.",
"1 : P Q W % 6 t 3 1 1 1 1 + 1 1 9 & & & # + + + O O + # # 1 # + + X O O + + # # + 1 M 7.u.y.0.' # & ",
"1 h b ( ( U Q p % 1 1 1 1 + + 1 % p 1 # 1 1 + + + + + 1 Z 1 # # + + + + + 1 # + + 1 B 0.r.u.e.;.Z Z ",
"v ( T l , 1 1 1 1 + + 1 + + + 1 w 1 1 1 & + + + + + & w 0 & : ` k % , 0 & F F # # & ` u.p.u.>.T & & ",
"n Y g 1 , : & 1 & + + + + 1 1 % B , & 1 + & + + + & >.%.T a ;.<.5.;.0 1 A k Z # & e.7.i.a.7.D D & 1 ",
"b U + 1 9 1 + + 1 1 + + + 1 1 & & 1 & & 1 & 1 # w +.7.7.7.<.<.<.8.u 0 0 r A w & J 1.0.q.r...S H u Z ",
"1 1 1 % % h 1 + + + + + 1 & 0 0 0 0 & & & c u c <.@.2.+.;.k X.5.0.@.' *.w w ' $.;.0.7.y.*.Z & Z Z Z ",
"1 1 W 3.t ( ;., + + + + & & k r y c % & c *.5.5.+.;.+.%.X.J 7.5.8.8.E ;.u X.<.r.y.0.0.u.Z Z Z 1 # @ ",
"% l n T :.:.Q 1 + + + + k M 0 & J c 0 X.$.5.5.2.:.5.8.7.0.` { 1.{ c E *.$.1.[ 0.w.8.#.1.:.S Z 1 # # ",
"6 3 , , j Q ( + 1 % + 1 I @.u 0 c k 0 X.<.t.r.0.7.0.7.u.y.*.0 ;.;.0 c H  .S <.0.e.y.y.*.%.Z Z 1 Z # ",
"+ 1 w V : p E 1 1 0 & & 1 % u a 0 0 1 w >.<.7.7.0.y.u.i.r.<.+.*.M D $.X.$.+.0.0.y.u.r.$.Z C # # # # ",
"X O 1 g u ` t & 0 & 1 + & & & 0 0 1 1 0 %.8.5.e.q.e.0.e.1.>.;...a F >.8.$.1.8.0.e.p.i. .Z + + @ # # ",
"O O 1 k w p 0 0 c & & 1 u & & 0 % 1 1 & a 8.8.>.o.p ;.1.J 1.1.>.*.A u w A $.>.;.0.y.0...D # # # # + ",
"O O O + 1 & p E o.& & & & & 0 % w ;.1.e.<.E w & , M %.1.5.5.` 0 A & # # # # 1 S 2...A >.G + + @ @ + ",
"O O O + # 1 p +.+.1 & 1 + 1 1 1 w 8.0.7.*.1 & # + 0 *.5.1.k 0 & S A # @ # # # Z Z & ....Z # @ @ @ + ",
"+ O + + + 1 1 0 1 1 + + 1 # 1 1 $.2.o.%.M S 0 & + & $.%.*.0 & 1 Z Z # + Z @ @ # # Z 1 # C @ @ @ # # ",
"+ + O O + + # + # # # + + # + 1 0 p +.*.r 1 # # # 1 & 0 0 1 Z 1 1 # # # + + + + + # Z @ @ @ @ + # # ",
"X O O O + + O + + + # 1 1 1 1 & & D J 0 1 # # + # # # Z # # # # # # C # + + + + @ C 1 C + @ # # # # ",
"X O + O O X O # 1 # + 1 & & & & 0 Z 1 + @ @ + + # # + + # # + + # # # # # # # # # C Z C # # # # # # ",
"O O O O O O + # # + + # 1 1 & & 1 1 C # + O + + O O O O @ + + + # Z 1 # C # # Z C # # # # # # # # # ",
"X X X + X O + O O + + # 1 # 1 # @ X O O O O O O O + @ + + @ # C # # # # # # 1 1 # Z Z Z 1 Z C # # C ",
"X X X X X X O X X + + + # # + O X X o O o O o o @ + O O + @ # Z # Z 1 # # Z A Z Z A A ..A A A # C Z ",
". . X X . X X O o X O X + + X X X X o o O o o o + + + O O @ # Z Z A Z Z Z Z A A r A A A } >.A Z Z C ",
"X O O X X . . X . X X X X X X X o o X o o o o O @ @ + # C C 1 Z *.0 Z 1 & Z Z Z Z Z Z Z A } Z Z Z Z ",
"O O + X . . . . . X X X X X X O X o o o X o O @ + @ # C Z # 1  .A 1 C Z A Z # # # # # Z Z # C Z Z Z ",
"X O # X   . . . X X X + # + + O o o o o o O @ # # # # # # Z Z A Z # # # Z # # # # # # Z Z # Z Z C C ",
"X + + X . . . X X + # # # + + O O @ O o O + + # # @ # # Z Z # Z # # @ # C C # # Z Z # # # C C Z C C ",
"O . . . . X O + # Z # # # + o O O o O + + + # + + + @ @ # C 1 1 # # # # # # @ # # # # # # # # # # # ",
"X . . . . X O Z # 1 # # + O o o o O + + + # @ + @ O O + # Z Z C A # # # # Z C # # # # # # # # # C C ",
". . . . X O O # # 0 1 # O o o o O # @ @ # # + @ O O C # Z Z # @ # # # @ # Z # C # # # # # # # C C C ",
". . X X X O + # S u H t + @ o o O # # # # @ O O @ @ # # 1 1 Z # # C # @ # # # # # # # # # # C Z Z C ",
"  . X X X X + # & $.u 1 Z # o O o O O O @ O O O # Z Z Z & # @ + + @ @ @ # # C # C # # # # C C C C C ",
"  . . . . X X # # 1 A w # + O # 1 Z # + # @ @ @ # 1 Z A Z # @ @ @ # # # # # # # C # # # # # # # C C ",
"    . . X X o O @ & A & Z 1 1 A D , # + # # Z & A A # # # @ # @ @ @ # # # # C C C # # # # C C C C C ",
"  . . X o X o O @ & Z S u 1 & ..*.S A S # 1 A ..8.c ..Z # C C @ @ @ # C C C C Z # # # # C C C C Z Z ",
". . X X X X O @ Z Z Z Z & A $.;.5.A  .1.2.Z # A Z C # # # @ @ # @ # # # # # # # C C C # C C C C | >.",
". . . . X o O + # Z Z # 1 S r D S A S & 1 # # # # # @ @ @ @ @ @ C C C # # # Z C C C # # C C C C *.A ",
"o X X . X o o o + C # # # # # Z # C Z Z # O # Z @ # # # @ @ @ # C C # # C # C # C C C C C C C Z Z Z ",
"X X X X o O @ # C # # @ @ @ Z 1 # C Z Z Z @ # # # @ Z C @ # C # # @ # C C C # # C C C C C C C Z Z Z ",
"o X X o O o + @ @ # @ # @ @ # C # @ Z # # @ # # # C C # C # C # # C # C # # C C C C C C C C Z Z Z Z ",
"X . o X o @ o o @ @ @ @ @ @ @ # C C # Z C C C C C Z # # @ # C # @ @ C C C C C C C C C C C S Z Z Z Z ",
". X X X X @ @ @ @ # # @ O @ @ @ # # # C C Z # # C Z A Z C @ # # # # C # C C C C C C C C C $.A Z Z Z "
};
