/* XPM */
static char *aeb897fe297d40368fb5c1c1a63e55ee764WrPLBv1lWNsCR[] = {
/* columns rows colors chars-per-pixel */
"50 50 153 2 ",
"   c #010203",
".  c #060807",
"X  c #090806",
"o  c #050609",
"O  c #06090B",
"+  c #0A0A0C",
"@  c #0D100F",
"#  c #030C14",
"$  c #0D0E11",
"%  c #0D1113",
"&  c #0C151A",
"*  c #121315",
"=  c #191816",
"-  c #13141A",
";  c #161A1B",
":  c #1B1D1C",
">  c #1E201E",
",  c #041823",
"<  c #151922",
"1  c #1A1C24",
"2  c #1D1F29",
"3  c #1C2025",
"4  c #13212A",
"5  c #1F212B",
"6  c #192D38",
"7  c #222423",
"8  c #252927",
"9  c #292927",
"0  c #23242D",
"q  c #272928",
"w  c #2B2B2D",
"e  c #312D2F",
"r  c #2E302F",
"t  c #252630",
"y  c #292730",
"u  c #272830",
"i  c #2B2C33",
"p  c #352F34",
"a  c #2D3036",
"s  c #313334",
"d  c #3E3432",
"f  c #34353B",
"g  c #3E3639",
"h  c #37383C",
"j  c #3B3B3E",
"k  c #473B35",
"l  c #413639",
"z  c #45393A",
"x  c #513E3D",
"c  c #4A4335",
"v  c #5B433C",
"b  c #60463B",
"n  c #724F3E",
"m  c #61593A",
"M  c #73503F",
"N  c #6D643D",
"B  c #70663E",
"V  c #3E3E41",
"C  c #3C3B41",
"Z  c #413F45",
"A  c #404042",
"S  c #424243",
"D  c #434344",
"F  c #444445",
"G  c #434345",
"H  c #464847",
"J  c #454348",
"K  c #4B4649",
"L  c #4C4C4D",
"P  c #5B4540",
"I  c #544F54",
"U  c #524D51",
"Y  c #4D5151",
"T  c #565555",
"R  c #5B5455",
"E  c #595957",
"W  c #565759",
"Q  c #595558",
"!  c #575958",
"~  c #5F5F5D",
"^  c #5E585B",
"/  c #644942",
"(  c #6D4D43",
")  c #765144",
"_  c #7D5444",
"`  c #635959",
"'  c #666162",
"]  c #6A6365",
"[  c #6F6868",
"{  c #726967",
"}  c #736C6C",
"|  c #746C6C",
" . c #786F6D",
".. c #78716F",
"X. c #7C7473",
"o. c #935E48",
"O. c #9B614A",
"+. c #A5664B",
"@. c #AA694D",
"#. c #B26D4E",
"$. c #BD7351",
"%. c #807775",
"&. c #847B78",
"*. c #857C79",
"=. c #897F7C",
"-. c #C27653",
";. c #CB7A55",
":. c #D27D56",
">. c #8D8344",
",. c #9F9548",
"<. c #B8AB4E",
"1. c #D58057",
"2. c #D78158",
"3. c #DF8459",
"4. c #E2865A",
"5. c #E7885C",
"6. c #EC8B5D",
"7. c #F28E5E",
"8. c #F5905F",
"9. c #CBBC52",
"0. c #DACB55",
"q. c #F1DF5B",
"w. c #E7D758",
"e. c #F2E05A",
"r. c #F9E65C",
"t. c #8E8480",
"y. c #918683",
"u. c #988D88",
"i. c #9C918C",
"p. c #A1968F",
"a. c #A39791",
"s. c #A59992",
"d. c #AA9D96",
"f. c #AC9F98",
"g. c #ADA099",
"h. c #B3A49C",
"j. c #B7A8A0",
"k. c #BCADA3",
"l. c #BFB1A7",
"z. c #C0B1A7",
"x. c #C5B5AB",
"c. c #C8B8AD",
"v. c #CDBCB1",
"b. c #D5C3B7",
"n. c #D7C5B8",
"m. c #D9C7BA",
"M. c #DECBBE",
"N. c #E3CFC2",
"B. c #E1CEC1",
"V. c #E7D3C6",
"C. c #E5D2C4",
"Z. c #EAD6C7",
"A. c #EAD6C7",
/* pixels */
"                                O , 6 4 #     + + .           3 O   a %     + $ *   .   .   . 7 .   ",
"                    .         o $ < < < < +   + + o         % a 5 $ 3 % ; O   % * . .       w Y * . ",
"          .   .   . .   * 2 5 0 i f j h a u 5 5 2 + $ 5 5 5 u i i u 0 5 5 1 %               W Y     ",
"              . .   . 5 i V G F F V V S F F F F V 0 0 D F F F F F F F F F j 5 2 $         9 ~ E     ",
"                  $ 2 u F F D i t 0 0 0 0 u j F F F F F F F F F F F F F F F j 5 5       X 7 T ~   G ",
"                - 0 j F F i S F F F F F F F F f 0 F F F F F F F F F F F F F F F V 5 2 + : > j ! j Y ",
"              * 5 j F V F F F F F F F F F F F F F F F F F F F F F F F F F F F F F u 5 w 7 ; s H L * ",
"+ +       . + 0 j F V j F F F F F F F F F F F F F F F F F F F F F F F F F F F F F F D 5 8 7 :   $   ",
"+ +       . 5 F F F F F F F F F F F F F F F F F F F F F F F F F F F F F F F F F F 0 5 5 0 s :     . ",
"  . .     + 0 i u u F F F F F F F F F F F F F F F F F F F F F F F F F F F F F F F i 5 @ : : 7 q     ",
"  . + + . < < $ 2 h F F F F F F F F F F F F F F F F F F F F F F F F F F F F F F F D 5 % 8 ; 7 O   + ",
"              1 5 F F F F F F F D 0 u F F V u F F D u V F F F F F F F F F F F F F F f < a & & . + * ",
"        +     5 0 F F F F F F h 0 5 0 F j 0 0 F F f 5 0 D F F F F u j F F F F F F F V 2 a & &     + ",
"        .     5 S F F F D h 5 C ] 0 S t 0 5 j F h 5 } s.5 5 s F F 5 0 0 V F F F F F S 2 5 # O X = * ",
"              5 V F F D 0 5 C m.h s a 5 %.5 D i 5  .V.Z.u.J 5 u f 5 z.5 0 u j D F F j 5 - O     = . ",
"    + * %     5 j F u 5 i.V.M.5 5 5 L Z.5 5 5 ' b.Z.Z.Z.Z.Z.Z.h.} U Z.Z.B.g.I 5 5 F h 3             ",
"    o - : o   5 f F 5 Z.Z.Z.T ..k.Z.Z.Z.C &.Z.Z.Z.Z.Z.Z.Z.Z.Z.Z.Z.Z.Z.Z.Z.Z.Z.5 5 F f *       .     ",
"      o +   O 5 s F 5 Z.Z.Z.Z.Z.b.U j Z.Z.Z.Z.Z.Z.Z.Z.Z.Z.Z.Z.Z.j y.b.Z.Z.Z.Z.5 5 F i $ : +     o   ",
"  +         1 5 u F 5 Z.Z.Z.K +.6.@.` Z.Z.Z.Z.Z.Z.Z.Z.Z.Z.Z.Z.Z.` 8.6.l x.Z.Z.5 5 F u + r =   o 7 % ",
". . $ +       5 0 F 5 Z.U v 8.8.8./ s.Z.Z.Z.Z.Z.Z.Z.Z.Z.Z.Z.Z.Z.s.8.8.8.4.v B.5 5 F 0 o       o O o ",
".   + o   + o 5 0 F 5 B.) 7.8.8.8.l c.Z.Z.Z.Z.Z.Z.Z.Z.Z.Z.Z.Z.Z.c.8.8.8.8.7.K 5 5 S 0           o   ",
"+         + o   - 5 5 x 8.8.8.8.8.5.O.g b.Z.Z.Z.Z.Z.Z.Z.Z.Z.=.z O.8.8.8.8.8.7.5 5 5 1             . ",
".         .   < 2 5 5 2.8.8.8.8.8.8.8.;.i R V.Z.Z.Z.Z.Z.f.R ) 8.8.8.8.8.8.8.8.5 5 5 2 $     . o     ",
"      o . . 5 i.M.D 5 8.8.8.6.k n ;.6.8.8.8.1.P g y g o.8.8.8.8.6.O.M e 8.8.8.5 5 z.M.0 O           ",
"    o $ + . 5 Z.Z.V.5 8.8.8.+.r.r.r.e.,.w b 8.8.8.8.8.8.2.v N 9.e.r.r.B 8.8.8.5 5 Z.Z.u.- + *   O   ",
"      . .   5 Z.Z.Z.5 8.8.8.-.r.r.r.r.r.q.>.-.8.8.8.8.8.w >.r.r.r.r.r.c 8.8.8.5 5 Z.Z.=.- @ 3       ",
"  . .       5 Z.Z.Z.5 8.8.8.8.e >.r.r.r.<.m ;.8.8.8.8.8.d m w.r.r.0.>.;.8.8.8.5 5 Z.Z.^ +       + o ",
". o o       5 Z.Z.Z.5 o.8.8.8.8.8.8.8.8.8.8.8.8.8.8.8.8.8.8.8.8.8.8.8.8.8.8.7.5 5 Z.Z.f +       + + ",
"    .       5 V.Z.Z.5 R -.8.8.8.8.8.8.8.8.8.6.v l u z @.8.8.8.8.8.8.8.8.8.8.z 5 5 Z.Z.0         O   ",
"          . < k.Z.Z.5 Z.M.} @.8.8.8.8.8._ i n.[ i.Z.Z.Z. .i 4.8.8.8.8.7.p { Z.5 5 Z.Z.5 :     + * . ",
"        X * < f.Z.Z.5 Z.Z.Z.K o.$.4.:.(  .n.Z.] i.Z.Z.Z.Z.n.i #.:.3.$.l k.Z.Z.5 5 Z.Z.5 1       +   ",
".         . % X.Z.Z.5 Z.Z.Z.Z.Z.Z.Z.Z.Z.Z.Z.Z.V C.Z.Z.Z.Z.Z.Z.Z.Z.Z.Z.Z.Z.Z.Z.5 5 Z.Z.5 O           ",
"* + + o     + U Z.B.5 Z.Z.Z.Z.Z.Z.Z.Z.Z.Z.Z.Z.Z.Z.Z.Z.Z.h.a Z.Z.Z.Z.Z.Z.Z.Z.Z.5 5 Z.Z.5 o o o       ",
".             0 f.X.5 Z.Z.Z.Z.Z.Z.Z.Z.Z.Z.B.k.Z.Z.Z.Z.B.k.h Z.Z.Z.Z.Z.Z.Z.Z.Z.5 5 M.f.5 .           ",
"o             $ 1 < 5 Z.Z.Z.Z.Z.Z.Z.Z.Z.Z.Z.Z.K Z.Z.Z.z.Z.Z.Z.Z.Z.Z.Z.Z.Z.Z.Z.5 5 5 1               ",
"                    2 C.Z.Z.Z.Z.Z.Z.Z.Z.Z.Z.Z.Z.Z.Z.Z.Z.Z.Z.Z.Z.Z.Z.Z.Z.Z.Z.Z.5 2 .                 ",
"                    1 b.Z.Z.Z.Z.Z.c.*.Z.Z.Z.Z.Z.Z.Z.Z.Z.Z.Z.Z.t.*.Z.Z.Z.Z.Z.Z.5 1 .                 ",
"                    - X.Z.Z.Z.Z.Z.5 i Q y.p.c.m.M.Z.M.v.j.a.X.C i j.Z.Z.Z.Z.Z.5 *         o   . .   ",
".                   + C Z.Z.Z.Z.Z.5 f.f...' Z a i 5 i C U ' t.v.f.x.Z.Z.Z.Z.V.5 +     +         . . ",
".                     5 m.Z.Z.Z.Z.p.C.Z.Z.Z.Z.Z.Z.Z.Z.Z.Z.Z.Z.Z.C.Z.Z.Z.Z.Z.f * . . + - . .     .   ",
"                        5 ' Z.Z.Z.Z.Z.Z.Z.Z.z. .' Q ' u.C.Z.Z.Z.Z.Z.Z.Z.Z.] 2 .       .             ",
"            o     .     2 5 Z.Z.Z.Z.Z.Z.Z.Z.Z.Z.Z.Z.Z.Z.Z.Z.Z.Z.Z.Z.Z.Z.} 5 7 :             .       ",
"            +     . .     + 5 Z.Z.Z.Z.Z.Z.Z.Z.Z.Z.Z.Z.Z.Z.Z.Z.Z.Z.Z.Z.y.2 + w q       + o     .     ",
"    o             .       o $ 0 a.Z.Z.Z.Z.Z.Z.Z.Z.Z.Z.Z.Z.Z.Z.Z.Z.Z.d.5         .     o .           ",
"  o + + o + $ . . + + o + $ . 5 0 Z.Z.Z.Z.Z.Z.Z.Z.Z.Z.Z.Z.Z.Z.Z.Z.h.0 * .   .       + * +         . ",
"  . + .           . .   . +     - u l.Z.Z.Z.Z.Z.Z.Z.Z.Z.Z.Z.Z.Z.x.5 -           .     $ * o     . + ",
"                          .       5 i Z.Z.Z.Z.Z.Z.Z.Z.Z.Z.Z.Z.c.i - :           $ +   + ; * o       ",
"                                    - 5 f.b.Z.Z.Z.Z.Z.Z.V.b.^ 5 -   7     .     o o . + $ + O * .   ",
"                    .                   < 2 5 5 5 5 5 5 5 2 %       +   o                           ",
"                    .                         .   +                     + .                       . "
};
