/* XPM */
static char *_62de997a1f146239c1c7c8ec9395c26FsmEtdLGLldWs3El[] = {
/* columns rows colors chars-per-pixel */
"50 50 142 2 ",
"   c #010203",
".  c #060807",
"X  c #080806",
"o  c #050609",
"O  c #05090B",
"+  c #0A0A0C",
"@  c #0E100F",
"#  c #000612",
"$  c #040E15",
"%  c #0D0E11",
"&  c #020C18",
"*  c #0D1114",
"=  c #0D161A",
"-  c #121314",
";  c #191816",
":  c #14151A",
">  c #16191D",
",  c #1B1C1C",
"<  c #1E201E",
"1  c #041823",
"2  c #161A21",
"3  c #1B1C23",
"4  c #1D1F28",
"5  c #1D2325",
"6  c #13212A",
"7  c #1F212B",
"8  c #192D38",
"9  c #222424",
"0  c #292927",
"q  c #22232C",
"w  c #2B262E",
"e  c #252B2C",
"r  c #2C2A2D",
"t  c #342D2F",
"y  c #252630",
"u  c #2C2730",
"i  c #272A31",
"p  c #2C2D34",
"a  c #332C33",
"s  c #3D2A34",
"d  c #2C3134",
"f  c #313234",
"g  c #3D3231",
"h  c #34353A",
"j  c #36393C",
"k  c #3B3B3E",
"l  c #432B36",
"z  c #472D38",
"x  c #4A2E39",
"c  c #4B2E39",
"v  c #423532",
"b  c #483733",
"n  c #4C3A33",
"m  c #543F35",
"M  c #50303B",
"N  c #57313D",
"B  c #59313D",
"V  c #36403F",
"C  c #574136",
"Z  c #5A4237",
"A  c #614637",
"S  c #674939",
"D  c #6B4C39",
"F  c #704F3B",
"G  c #75523C",
"H  c #7C553D",
"J  c #7F583E",
"K  c #373C40",
"L  c #3C3D41",
"P  c #623340",
"I  c #623440",
"U  c #653441",
"Y  c #6F3744",
"T  c #6F3944",
"R  c #6D3843",
"E  c #723845",
"W  c #7C3A48",
"Q  c #7E3B49",
"!  c #7E3B49",
"~  c #394143",
"^  c #404142",
"/  c #434542",
"(  c #434344",
")  c #444445",
"_  c #444445",
"`  c #464847",
"'  c #44494C",
"]  c #4B4D4C",
"[  c #4C4D51",
"{  c #4C5051",
"}  c #4E5151",
"|  c #565654",
" . c #595957",
".. c #555659",
"X. c #575958",
"o. c #5F5F5D",
"O. c #704A4F",
"+. c #7C4C52",
"@. c #83593E",
"#. c #885D3F",
"$. c #873E4B",
"%. c #853E4B",
"&. c #883F4B",
"*. c #91414F",
"=. c #895E40",
"-. c #864D54",
";. c #9B4351",
":. c #994351",
">. c #964F58",
",. c #A34654",
"<. c #AA4756",
"1. c #AE4857",
"2. c #AC4857",
"3. c #AE4858",
"4. c #B84B5A",
"5. c #BB4C5B",
"6. c #BC4D5B",
"7. c #8F6140",
"8. c #946341",
"9. c #996642",
"0. c #9E6943",
"q. c #A46C44",
"w. c #AC7146",
"e. c #B27447",
"r. c #B77748",
"t. c #C24E5E",
"y. c #C14E5D",
"u. c #CC5160",
"i. c #DE5666",
"p. c #E25767",
"a. c #E35768",
"s. c #E55869",
"d. c #EC5A6A",
"f. c #ED5A6C",
"g. c #F15B6C",
"h. c #F05B6C",
"j. c #F15B6C",
"k. c #A4A5A0",
"l. c #BEBEB7",
"z. c #BFBFB8",
"x. c #CECDC4",
"c. c #FCFBED",
/* pixels */
"                                O 1 8 6 &     + + .           5 O   d *     + % -   .   .   . 9 .   ",
"                    .             & & $ =     + +           + j q O 3 * > O   * - . .       w } - . ",
"          . + 7 . . .             # o $ 7   , + .           * ' e   % 3 :   *     3 7 +     ..}     ",
"            4 c 7 +                     + 0 , + .     . .   5 V e + - .   .   + 4 l c 4   0 o. .    ",
"            7 a d.7 %             + - .   - .         4 f o o j e + * , > .   7 P <.a 7 X 9 | o.  / ",
"            7 j g.%.7             . - +           .   O h q   5 $ o = p h > > q g.M j 7 , < k X.k } ",
"          * p ) T j.u.7 7           .     . .       o   [ ..  O = i ~ K p 7 s g.g.h ) p 9 > f ` ] - ",
"+ +       4 ^ ) h j.j.j.3.7 : + .                   .   3 f , , f f f q 7 2.g.g.I ) ) ^ 7 9 ,   %   ",
"+ +       7 ) ) ) a g.g.g.g.l 7 : . .             q h % .   e : - 4 7 l g.g.g.g.) ) ) ) 7 f ,     . ",
"  . .     7 ) ) ) ( ;.g.g.g.g.g.c 7 4 : . . .     * *   , o : 7 7 4.g.g.g.g.g.O.) ) ) ) 7 , 9 0     ",
"  . + + + q ) ) ) ) k 4.g.g.g.g.g.g.t.Q q 7 7 7 7 7 7 7 7 q Q g.g.g.g.g.g.g.>.) ) ) ) ) q > 9 .   + ",
"        % p ) ) ) ) ) L u f.g.g.g.g.g.g.g.g.g.g.g.g.g.g.g.g.g.g.g.g.g.g.f.+.) ) ) ) ) ) p 2 = . + - ",
"        : h ) ) ) ) ) ) ^ z g.g.g.g.g.g.g.g.g.g.g.g.g.g.g.g.g.g.g.g.g.g.l ) ) ) ) ) ) ) h 2 =     + ",
"        2 j ) ) ) ) ) ) ) ) a %.g.g.g.g.g.g.g.g.g.g.g.g.g.g.g.g.g.i.Q a ) ) ) ) ) ) ) ) j 2 O X ; - ",
"        3 L ) ) ) ) ) ) ) ) ) ) h N g.g.g.g.g.g.g.g.g.g.g.g.g.d.-.) ) ) ) ) ) ) ) ) ) ) L 3 o   - . ",
"    + - 4 ^ ) ) ) ) ) ) ) ) ) ) ) ) f w g.g.g.g.g.g.g.g.g.g.a ( ) ) ) ) ) ) ) ) ) ) ) ) ^ 4         ",
"    . : 7 ^ ) ) ) ) ) ) ) ) ) ) ) ) ) ) a s.g.g.g.g.g.g.p.a ) ) ) ) ) ) ) ) ) ) ) ) ) ) ^ 3   .     ",
"      . 3 L ) ) ) ) ) ) ) ) ) ) ) ) ) ) ) h a.g.g.g.g.a.h ) ) ) ) ) ) ) ) ) ) ) ) ) ) ) k 3     o   ",
"  +     : j ) ) ) ) ) ) ) ) ) ) ) ) ) ) ) ) u g.g.g.! a ) ) ) ) ) ) ) ) ) ) ) ) ) ) ) ) j 3   o 9 * ",
". . % + % p ) ) ) ) ) ) ) ) ) ^ q 7 7 7 q j ) s g.f.j ) j q 7 7 7 p ^ ) ) ) ) ) ) ) ) ) p %   o . o ",
".   + . + i ) ) ) ) ) ) ) ) _ 7 q A G S q 7 j u g.,.) j 7 q S G g 7 7 _ ) ) ) ) ) ) ) ) i +     .   ",
"+         7 ) ) ) ) ) ) ) ^ 7 8.r.r.r.r.r.r.q i 6.u 7 q r.r.r.r.r.r.8.7 ^ ) ) ) ) ) ) ) 7         . ",
".         7 ) ) ) ) ) ) ) 7 q.r.r.r.r.r.r.r.r.v q 7 w.r.r.r.r.r.r.r.r.q.7 ) ) ) ) ) ) ) 7   . .     ",
"      . . 3 h ) ) ) ) ( q S r.r.r.r.r.r.r.r.r.r.g w.r.r.r.r.r.r.r.r.r.r.S q ) ) ) ) ) h 2           ",
"    . % + + 7 ) ) ) ) y 7 r.r @.D t e.r.r.r.r.r.r.r.r.r.r.r.r.D v @.J r r.7 ) ) ) ) ) 7   + -   .   ",
"      . .   7 j ) ) ) 7 A r.r.r.r.r.9.v q.r.r.r.r.r.r.r.r.q.v r.r.r.r.r.r.A f ) ) ) j 7   @ 5       ",
"  .         + 7 ) ) ^ q e.r.r.r.r.r.r.r.0.m r.r.r.r.r.r.m 0.r.r.r.r.r.r.r.r.7 ) ) h 7 .         + . ",
". . .         7 L ) j n r.r.r.r.r.r.r.r.r.C q.r.r.r.r.q.C r.r.r.r.r.r.r.r.r.7 ) ) q 7   .       + + ",
"    .           7 ( p @.r.r.7 7 7 7 v H r.r.@.8.r.r.r @.r.r.H 7 7 7 7 7 r.r.7 ) p 3 9 +         .   ",
"          .     + 7 q q.r.r.q x.c.K 7 q 7 =.r.r.r.7.r.r.#.7 q 7 c.c.x.q r.r.7 p 7 . r w ,     + - . ",
"        X - +     : 7 e.r.r.r.7 k.l.K z.c.q v r.r.Z r.g q c.l.K c.i 7 r.r.r.7 4 +   + 3 3       +   ",
".         .     - w r q.r.r.r.r.t 7 7 7 7 t r.r.r.m r.r.t 7 7 7 7 @.r.r.r.r.7 H 7       .   o       ",
"- + +           7 r.D b r.r.r.r.r.r.r.r.r.r.r.r.r.H r.r.r.r.r.r.r.r.r.r.r.r.7 r.b % + + . o o       ",
".               7 r.r.7 Z r.r.r.r.r.r.r.r.r.r.r.r.r.8.r.r.r.r.r.r.r.r.r.r.C a r.n +   . .           ",
".               : m r.v 7 w.r.r.r.r.r.r.r.r.r.r.r.r.g r.r.r.r.r.r.r.r.r.w.7 r.r.7                   ",
"                  7 r.q.w w r.r.r.r.r.r.r.r.r.r.r.r.r.r.r.r.r.r.r.r.r.r.w r r.7.7 .                 ",
"                  3 F r.r.7 v H r.r.r.r.r.e.8.r.r.r.e.8.e.r.r.r.r.w.H v 7 r.r.7   .                 ",
"                    7 q.r.7 r.r.8.G r.r.r.r.r.g r.r.9.r.r.r.r.0.@.e.r.r.7 r.a :           .   . .   ",
".                     7 7 q w.r.r.r.r.r.r.r.r.r.r.r.r.r.r.r.r.r.r.r.r.w.q 7 : X       +         . . ",
".                         3 G r.r.r.r.r.r.r.r.r.r.r.r.r.r.r.r.r.r.r.r.G 3 . + + . . + : . .     .   ",
"                          . q r.r.r.r.r.r.H 2.t.s &.s.2.H r.r.r.r.r.r.q     + .       .             ",
"            .     .         4 S r.r.r.r.r.w Y ,.4.<.*.Y w r.r.r.r.r.S 4     9 ,             .       ",
"            +     . .       + q r.r.r.r.r.T ;.E B U Q ;.T r.r.r.r.@.q -     r 0       + .     .     ",
"    .             .       .   : t r.r.r.r.@.,.g.g.g.a.,.@.r.r.r.w.7 > .               . .           ",
"  . + + . + % . . + + . + % . . 4 A r.r.r.r.r.r.r.r.r.r.r.r.r.r.7 .     .   .       + - +         . ",
"  . + .           . .   . +       7 8.r.r.r.r.r.r.r.r.r.r.r.r.q *               .     % - .     . + ",
"                          .         7 g r.r.r.r.r.r.r.r.r.r.g 3     ,           % +   + > - .       ",
"                                    . 4 D r.r.r.r.r.r.r.r.D 4       9     .     . . . + % + . - .   ",
"                    .                   7 t 0.r.r.r.e.0.t 7         +   .                           ",
"                    .                     + 3 7 7 7 7 3 %               + .                       . "
};
