/* XPM */
static char *_94fa0341cf14cd09ab7a77b9ae6f741fgjRbqPimSUz9suD[] = {
/* columns rows colors chars-per-pixel */
"50 50 143 2 ",
"   c #010203",
".  c #060807",
"X  c #080806",
"o  c #040609",
"O  c #090708",
"+  c #05090C",
"@  c #0A0A0C",
"#  c #0D100E",
"$  c #000612",
"%  c #040C12",
"&  c #0C0E11",
"*  c #040E18",
"=  c #0A0E1A",
"-  c #0D1114",
";  c #07141A",
":  c #0D161B",
">  c #0C191F",
",  c #131415",
"<  c #191816",
"1  c #14161B",
"2  c #151A1D",
"3  c #1B1D1C",
"4  c #1E201E",
"5  c #041823",
"6  c #0E1821",
"7  c #1C1720",
"8  c #141A21",
"9  c #1B1D24",
"0  c #1C1F29",
"q  c #251E27",
"w  c #172025",
"e  c #1E2325",
"r  c #13212A",
"t  c #1F212B",
"y  c #1B2A31",
"u  c #192D38",
"i  c #222423",
"p  c #252A27",
"a  c #292927",
"s  c #23242D",
"d  c #29232D",
"f  c #252B2B",
"g  c #2A2A2C",
"h  c #2D312E",
"j  c #262630",
"k  c #292731",
"l  c #272F30",
"z  c #2A2B33",
"x  c #362531",
"c  c #322C35",
"v  c #3C2934",
"b  c #2C3133",
"n  c #323433",
"m  c #32373B",
"M  c #36333C",
"N  c #34323A",
"B  c #3B353E",
"V  c #33383B",
"C  c #323C3B",
"Z  c #3C3E3C",
"A  c #4E2D38",
"S  c #58313D",
"D  c #36403F",
"F  c #373C40",
"G  c #3B3840",
"H  c #3C3841",
"J  c #3C3841",
"K  c #413D44",
"L  c #4D3B45",
"P  c #663541",
"I  c #394143",
"U  c #434542",
"Y  c #464847",
"T  c #4D454D",
"R  c #44494C",
"E  c #4B4D4C",
"W  c #574D55",
"Q  c #4D5151",
"!  c #565654",
"~  c #595056",
"^  c #595957",
"/  c #565759",
"(  c #5F545B",
")  c #5E535B",
"_  c #575958",
"`  c #5F5F5D",
"'  c #634850",
"]  c #6B4C54",
"[  c #61575D",
"{  c #74515A",
"}  c #665A61",
"|  c #675B61",
" . c #695C62",
".. c #74666B",
"X. c #7D6C72",
"o. c #803C49",
"O. c #9B4350",
"+. c #A44754",
"@. c #B14A58",
"#. c #815860",
"$. c #8B5D66",
"%. c #817074",
"&. c #867478",
"*. c #89757B",
"=. c #BA777F",
"-. c #D25363",
";. c #F05B6C",
":. c #927E82",
">. c #C57E86",
",. c #968185",
"<. c #998386",
"1. c #9C8689",
"2. c #A48B8E",
"3. c #A1898C",
"4. c #A48C90",
"5. c #A99092",
"6. c #B29698",
"7. c #B29698",
"8. c #B4989B",
"9. c #BB9FA0",
"0. c #BEA1A2",
"q. c #CD838B",
"w. c #D3868E",
"e. c #D6888F",
"r. c #D88991",
"t. c #E28E96",
"y. c #ED959C",
"u. c #F2979F",
"i. c #F599A0",
"p. c #C5A5A7",
"a. c #CAAAAB",
"s. c #D1AFB1",
"d. c #D4B2B3",
"f. c #D9B6B6",
"g. c #DEBABA",
"h. c #E4BFBF",
"j. c #E7C1C1",
"k. c #E6C0C0",
"l. c #EEC7C6",
"z. c #EBC4C3",
"x. c #EFC9C8",
"c. c #F3CBCA",
"v. c #F3CBCA",
/* pixels */
"                                o 5 u r *     @ @ .           e +   b -     @ & ,   .   .   . i .   ",
"                                  * * % :     @ @           @ V i o 9 - 2 +   - , . .       g Q , . ",
"          .   .   . .             $ o % t   3 @ o           - R f   & 9 1   -               / Q     ",
"              . .                       @ g 3 @ .     o o   i D f @ , +   . . @ O         a ` ^     ",
"                                  @ , .   , 1 0 0 1 o 9 n o o C f @ - 3 2 o             X i ! `   U ",
"                                  . , @ 0 s 1.j.h.} t t t t @ e % o : l m 2   o   o   @ 3 4 Z _ Z Q ",
"                                    o t 6.v.v.v.v.v.v.v.N 5.M t t l I F b 2     o e b b i < n Y E , ",
"@ @       . .       .       o @ .   t g.v.v.v.v.v.v.v.v.v.N v.v.p.t k f +       - f b p p i 3   &   ",
"@ @       .                 o . . 0 8.v.v.v.v.v.v.v.v.v.v.v.*.v.v.v.s &   o     o +   # h n 3     . ",
"  . .                   . . .   @ z v.v.v.v.v.v.v.v.v.v.v.v.l.v.v.v.v.t   o       o   # 3 3 i f     ",
"  . @ @ .             . @ @ .   t h.v.v.v.v.v.v.v.v.v.v.v.v.v.2.v.v.v.<.9       . &   @ p 2 i +   @ ",
"                                t v.v.v.v.v.v.v.v.v.v.v.v.v.v.N v.v.v.v.t o   + & & % % b : : . @ , ",
"        @             @       & ( v.v.v.v.} G v.v.v.v.v.v.v.v.v.v.v.v.v.H o.+.  & % o : b ; :     @ ",
"        .             @       2 6.v.v.v.~ v.v.v.v.v.v.v.v.v.v.9.v.v.v.v.3.s +   + o   1 t % + X < , ",
"                      .       9 f.v.v.} v.v.v.v.v.v.v.v.v.v.v.X.v.v.v.v.s.9 o o   % 8 s 1 o     < . ",
"    @ , -             - - +   t x.v.v.j 4.v.v.v.v.H v.v.v.v.v.( v.v.v.v.l.t t d 7 8 f 9             ",
"    o 1 3 o           2 , +   9 d.v.v.k v.v.:.v.v. .v.v.v.v.v.j v.v.v.v.f.t t d 9 - @         .     ",
"      o @   + & & +   &       1 3.v.v.p.v.N v.v.~ v.v.v.v.v.v.X.v.v.v.v.6.S P 8 %       3 @     o   ",
"  @         9 f f 2         o + G v.5.v.v.) j  .v.v.v.v.v.v.d.v.v.v.v.v.) : 6 % o o o   h <   o i - ",
". . & @                 o &   o t v.X.v.p.v.v.v.v.v.v.v.v.v.X.v.v.v.v.v.z 7 e & o             o + o ",
".   @ o   @ o     o @ . o @   o t d.s v.[ v.v.v.v.v.v.v.v.v...v.v.v.v.v.t ;.A +                 o   ",
"@         @ o     . @     .   o t 3.B v.0.f.v.v.v.v.v.v.v.T v.v.v.v.v.*.s x -.s + o               . ",
".         .         o         . t v.v.v.v.B v.v.v.v.v.v.&.z.v.v.v.v.v.t ;.q     o o         . o     ",
"      o . .       . o . . .     t v.v.v.v.B v.v.v.v.g.W j.v.v.v.v.v.k 8 -.@.                        ",
"    o & @ . .     . o @ & o     t *.v.v.,.%.v.v.6.z d.v.v.v.v.v.v.B v o + s         .     @ ,   +   ",
"      O .             o @ .       t t t t 9 t 1.~ ) v.v.v.v.v.a.t 2 O.o     .             # e       ",
"  . .       @     .         @     , i   , 1 ..v.v.v.t t t t t 0 o o +         @                 @ o ",
". o o                   . @ o     . + o   t z.v.v.p.k o     . + % & o o , ,         .   o       @ @ ",
"    .                     .         .     t v.v.v.T &         o 2 : + - 2 - @ i     i @         +   ",
"          .       . .                   @ K v.v.v.t & o   @ .   w :   + & . . ,   . g g 3     @ , . ",
"        X , @     @ @ o               . 9 p.v.v.v.t , @   , , + 9 1 o           @   @ 3 9       @   ",
".         .       . @ .     . . @ @ 1 t t v.v.v.,.1 .     @ # o - & o         . .       +           ",
", @ @                     . @ 3 3 t #.y.{ t p.M s @ . .       o -         . &       @ @ o o o       ",
".                         . .   . s i.i.i.s t t t t @ @ .     & ,     @   . @   .     o .           ",
"o                           1 t t ] i.i.i.y.q.i.i.>.t +             o @ o o                         ",
"                          @ s u.i.i.i.i.i.i.i.i.i.i.t 0   o = + + o   o           .                 ",
"                          9 e.i.c r.r.c i.i.i.i.i.i.s t 1 % t 8 %         @ .     .                 ",
"                          9 w.i.i.i.i.i.{ i.i.i.i.=.t.i.s * 8 -           @               o   . .   ",
".                         1 k L i.i.i.i.B i.i.i.i.i.i.i.r.0 o : + o           X       @         . . ",
".                       o t i.t.i.i.i.i.i.i.i.i.i.i.i.i.r.t % o % o     . . @ @ . . @ 1 . .     .   ",
"                        9 w.i.i.c e.i.i.i.i.i.i.i.i.i.i.s y y   + o         @ .       .             ",
"            o     .     9 e.i.i.u.i.i.i.i.i.i.i.u.B t t 8 > > + o   o .     i 3             .       ",
"            @     . .   + s i.i.$.i.i.i.i.i.i.i.i.i.t 8 ; ; + +     1 @     g a       @ o     .     ",
"    o             .       1 t t t $.y.$.i.' i.i.i.i.t t o +   +   @ @ o               . .           ",
"  o @ @ o @ & . . @ @ o @ & . . t i.i.i.i.c i.i.i.i.t 1   o o           .   .       @ , @         . ",
"  . @ .           . .   . @     t i.i.i.i.t s q.r.s 1 -                         .     @ , o     . @ ",
"                          .     1 s r.r.s 1 & 9 9 +   & @ o         3           & @   @ 2 , o       ",
"                                  + 9 0 @   @ . . 9 ,               i     .     o o . @ & @ + , .   ",
"                    .                       @ . @ n i .             @   o                           ",
"                    .                         .   @                     @ .                       . "
};
