/* XPM */
static char *f4c85b3caa62400b805050cdc8f4ae74tfeYy1m4ePC2ynoB[] = {
/* columns rows colors chars-per-pixel */
"50 50 107 2 ",
"   c #010203",
".  c #080705",
"X  c #060807",
"o  c #080806",
"O  c #040609",
"+  c #080609",
"@  c #05090C",
"#  c #0A0B0C",
"$  c #0D100E",
"%  c #000612",
"&  c #030C13",
"*  c #0C0E11",
"=  c #020C18",
"-  c #0A0E1A",
";  c #071216",
":  c #0D1114",
">  c #07141A",
",  c #0D161A",
"<  c #0E1A1F",
"1  c #121314",
"2  c #191816",
"3  c #131619",
"4  c #151A1C",
"5  c #1B1C1C",
"6  c #1E201E",
"7  c #041823",
"8  c #0E1B23",
"9  c #131C22",
"0  c #1C1E21",
"q  c #172025",
"w  c #1E2225",
"e  c #13212A",
"r  c #1E232A",
"t  c #1A2B32",
"y  c #192D38",
"u  c #222423",
"i  c #222522",
"p  c #222327",
"a  c #232726",
"s  c #222324",
"d  c #242827",
"f  c #262B27",
"g  c #292927",
"h  c #202528",
"j  c #212528",
"k  c #232428",
"l  c #23272A",
"z  c #242529",
"x  c #22262A",
"c  c #272928",
"v  c #262A29",
"b  c #24282B",
"n  c #272C28",
"m  c #25292C",
"M  c #27282C",
"N  c #232D2C",
"B  c #272C2F",
"V  c #262A2C",
"C  c #29292B",
"Z  c #292A2C",
"A  c #2A2B2C",
"S  c #2C312D",
"D  c #2E302F",
"F  c #272F31",
"G  c #282D31",
"H  c #2D3130",
"J  c #2F3130",
"K  c #2E3233",
"L  c #283035",
"P  c #2B3034",
"I  c #2A3237",
"U  c #2C3134",
"Y  c #313330",
"T  c #303133",
"R  c #343631",
"E  c #303135",
"W  c #313234",
"Q  c #323337",
"!  c #333436",
"~  c #32373B",
"^  c #36373B",
"/  c #353739",
"(  c #33383B",
")  c #343839",
"_  c #323C3B",
"`  c #36393B",
"'  c #3B3D3A",
"]  c #3D3F3E",
"[  c #36403F",
"{  c #373C40",
"}  c #394143",
"|  c #3D4244",
" . c #434542",
".. c #464847",
"X. c #44494C",
"o. c #4B4D4C",
"O. c #484C4F",
"+. c #4C4D51",
"@. c #4C5051",
"#. c #4F5150",
"$. c #4D5152",
"%. c #565654",
"&. c #595957",
"*. c #545559",
"=. c #565759",
"-. c #575958",
";. c #5F5F5D",
/* pixels */
"                                O 7 y e =     # # .           w @   U :     # * 1   .   .   . u X   ",
"                                  = = & ,     # #           # ( k O 0 : 4 @   : 1 . .       Z $.1 . ",
"          .   .   . .             % O & r   5 # +           : X.B   * 0 3   :               *.$.    ",
"              . .                       # C 5 # .     + +   w [ N # 1 @   .   # +         g ;.&.    ",
"                                  # 1 .   1 .         0 Q O O _ N # : 5 4 +             o s %.;.   .",
"                                  . 1 #   .       +   @ ^ k   w & O , G / 4   O   O   # 5 6 ' -.] $.",
"                                    .     . .       O   +.*.  @ , F } { I 4     O w K K u 4 Y ..o.1 ",
"# #       . .       .       + # .                   +   0 Q 5 5 T Q Q M @       : b K n d i 5   *   ",
"# #       .                 . . . .               z ^ * +   M 3 1     O   O     O @   $ D R 5     . ",
"  . .                   . . .     .     . . +     : :   5     #           +       O   $ 5 5 p b     ",
"  . # # .             . # # .               .   @ O O   p *           # .       . *   # d 4 u @   # ",
"                                              *   O O   k w   b :     * @ O   @ * * & & I , , . # 1 ",
"        #             #                       # ) 4     @ 3 + k 3   O : O   O   * & O , I ; ,     # ",
"        X             #                       / | O   @       # +   +   : * O   @ O   4 r & @ o 2 1 ",
"                      .             . . . .   :     : 3 O     1 3   O   3 : O O   & 9 x 3 O     2 . ",
"    # 1 :             : : @         .     . +     : 4 @       # 1     @ 3 @ r ;   4 M 0             ",
"    + 3 5 +           4 1 @               . # : @   4 w O O O . .   + O @   r w * * @         .     ",
"      O #   @ * * @   *                     +       M | :         k 0   @ & , 8 &       5 #     O   ",
"  #         0 b M 4         O                       : 0 O O   .   ` k O @ = 8 & O O O   D 2   O p : ",
". . * #                 + *   + .   @ +         M w             .     O   O w * O             O @ O ",
".   # +   # +     + # + + #   +     . @         M b @ * +                   @ O                 +   ",
"#         # +     . #         + + @       +     @ @   +                 .     + @ +               . ",
".                   +         . + +   : 1 1   @     * #         .     + # +     + +         . +     ",
"      + . .       . + . . .           1 #           4 1   .     O . + # #                           ",
"    + * # . .     . + # * +           . .       @   @ .       +   # 1 .             .     # 1   @   ",
"      + .             + # .         +   0 3       # #               @       .             $ w       ",
"  .         #     .         #     1 p   1 *   #   ! ^ + @   . @ O O @         #                 # + ",
". + +                   . # +     . @ +           4 3 +     . @ & : O O 1 1         .   +       # # ",
"    .                     .         .         :     .         O 4 , @ : 4 : # s     u #         @   ",
"          .       . .                         4     * +   #   O q ,   @ * . . 1   . A Z 5     # 1 . ",
"        o 1 #     # # +               . .     @   + 1 #   1 1 @ q , O           #   # 5 0       #   ",
".         .       . # .     . . # #                 .     # # O : * O         . .       @           ",
"1 # #                     . # 5 5 1 .   . # 1       . .       O :         . *       # # + O O       ",
".                         . .           . . #     @ # # .     * 1     #   . #         + .           ",
"+                                 . X     # 5 #                     + # + +                         ",
"                                    .   #   ) #     1 O   O - @ @ O   +   .       .                 ",
"                              .   #       # #     . #   O & r 9 &         # .     .                 ",
"                                  3   4 @         * :   & = 9 :           #               +   . .   ",
".                               # :   +.M         @ : O ; = O , @ O           o       #         . . ",
".                               : : O Z p O   .     : & , 8 & O & O     .   # # . . # 3 . .     .   ",
"                            .   @ *                 @ ; < y t   @ O         # .       .             ",
"            +     .         .         + +       +     O & < , @ O   + .     u 5             .       ",
"            #     . .                       +         O ; > @ @     3 #     A C       # +     .     ",
"    +             .       +                   1   .     O @   @   # # +               .             ",
"  + # # + # * . . # # + # * . .             # #           O O           .   .       # 1 #         . ",
"  . # .           . .   . #         . # X   @   .   + :                         .     * 1 +     . # ",
"                          .         # 1 #   @ #       * # +         5           * #   # 4 1 +       ",
"                                      # .   # . . 0 1               s     .     + +   # * # @ 1 .   ",
"                    .                       # X # Q p .             #   +                           ",
"                    .                         .   #                     # .                       . "
};
