/* XPM */
static char *_0cd33ee41f9441ce16da6b5a33adcc3gcAEChm5ylnHfZkt[] = {
/* columns rows colors chars-per-pixel */
"50 50 167 2 ",
"   c #070707",
".  c #0C0C0C",
"X  c #131414",
"o  c #171817",
"O  c #1C1C1C",
"+  c #232323",
"@  c #272828",
"#  c #2B2B2B",
"$  c #343434",
"%  c #373738",
"&  c #383738",
"*  c #3B3B3B",
"=  c #434444",
"-  c #4B4B4B",
";  c #4F504F",
":  c #4F4F50",
">  c #535353",
",  c #575758",
"<  c #5B5B5B",
"1  c #5F5F60",
"2  c #636363",
"3  c #676867",
"4  c #686867",
"5  c #6B6B6B",
"6  c #6F6F70",
"7  c #737373",
"8  c #777878",
"9  c #7C7C7C",
"0  c #807F7F",
"q  c #838383",
"w  c #888787",
"e  c #878887",
"r  c #878788",
"t  c #878888",
"y  c #8C8C8C",
"u  c #8F908F",
"i  c #90908F",
"p  c #949494",
"a  c #989797",
"s  c #979897",
"d  c #989897",
"f  c #9C9C9C",
"g  c #A09F9F",
"h  c #9FA09F",
"j  c #A0A09F",
"k  c #9FA0A0",
"l  c #A3A4A4",
"z  c #A7A8A7",
"x  c #A7A7A8",
"c  c #A7A8A8",
"v  c #AEAEAE",
"b  c #ADADAD",
"n  c #ABABAB",
"m  c #AFB0B0",
"M  c #B1B1B1",
"N  c #B0B0B1",
"B  c #B1B1B2",
"V  c #B2B2B2",
"C  c gray70",
"Z  c #B2B3B2",
"A  c #B3B3B4",
"S  c #B3B4B4",
"D  c #B4B4B4",
"F  c gray71",
"G  c #B6B7B7",
"H  c #B7B7B7",
"J  c #B4B4B4",
"K  c #B7B7B8",
"L  c #B7B8B8",
"P  c gray72",
"I  c #B9B9B9",
"U  c #B8B9B9",
"Y  c #BAB9BA",
"T  c gray73",
"R  c #BABBBA",
"E  c #BBBBBB",
"W  c gray74",
"Q  c #BCBCBC",
"!  c gray",
"~  c gray75",
"^  c #BEBFBF",
"/  c #BCBCBC",
"(  c #C0BFBF",
")  c #BFC0BF",
"_  c #C0C0BF",
"`  c #BFC0C0",
"'  c #C0C0C0",
"]  c #C1C1C1",
"[  c gray76",
"{  c #C3C3C3",
"}  c gray77",
"|  c #C5C5C5",
" . c #C4C5C5",
".. c #C5C5C6",
"X. c #C5C6C6",
"o. c #C6C6C6",
"O. c #C7C7C7",
"+. c #C4C4C4",
"@. c #C7C8C7",
"#. c #C7C7C8",
"$. c #C8C7C8",
"%. c #C8C8C8",
"&. c gray79",
"*. c #CBCBCB",
"=. c #CACACA",
"-. c #CBCBCC",
";. c gray80",
":. c #CDCDCD",
">. c #CDCECE",
",. c gray81",
"<. c #CCCCCC",
"1. c #CFCFD0",
"2. c #CFD0D0",
"3. c gray82",
"4. c #D1D2D1",
"5. c #D2D2D2",
"6. c LightGray",
"7. c #D2D3D3",
"8. c #D3D4D3",
"9. c gray83",
"0. c #D5D5D5",
"q. c #D5D6D5",
"w. c #D7D7D7",
"e. c gray84",
"r. c #D3D3D3",
"t. c #D7D7D8",
"y. c #D7D8D8",
"u. c #D8D9D9",
"i. c #DADADA",
"p. c gray86",
"a. c #DADBDA",
"s. c #DBDBDC",
"d. c #DDDDDE",
"f. c gray87",
"g. c #DEDFDE",
"h. c #DFDFDF",
"j. c gainsboro",
"k. c #DBDBDB",
"l. c gray88",
"z. c #E1E1E1",
"x. c #E1E2E1",
"c. c #E2E2E3",
"v. c gray89",
"b. c #E4E4E4",
"n. c #E4E5E4",
"m. c gray90",
"M. c #E7E7E7",
"N. c #E3E3E4",
"B. c gray91",
"V. c #E9E9E9",
"C. c #E9E9EA",
"Z. c #EAEAEA",
"A. c gray92",
"S. c #EEEEEE",
"D. c #EFEFEF",
"F. c #ECECEC",
"G. c #EBEBEB",
"H. c #EFF0EF",
"J. c #F1F1F0",
"K. c #F1F1F1",
"L. c #F3F3F3",
"P. c #F4F4F4",
"I. c #F7F8F8",
"U. c #F9F9F9",
"Y. c #F9F9FA",
"T. c gray98",
"R. c #FBFCFC",
/* pixels */
"c q t y p f X * * o . X X O 5 8 8 f 5 7 8 3 4 2 8 e q 9 y p 3 < O > V i.>.+.! { { v | ! v a p % 9 ! ",
"l t f a x > X * * * * , t - * % 3 - 4 8 7 4 4 5 8 q t 9 y 9 3 : + - 5 , { { 6.6.w.6.| | S V f % % @ ",
"* * y 3 v l y 7 { f > y { V f f q - # . + * l q > o . . . X X o $ @ 2 = = z.6.6.=.| H ! f t > < 9 9 ",
"l 5 l z.Z.M.i.z.w.> - ! w.l l l f y - * = 5 =.J.n f 9 H n R 8.| f q 7 * X . = 6.=.5 5 H > < = 0 v V ",
"> =.>.d.d.6.6.) 7 , > R V l f l f f v , , q >.F.l a | R H { ! =.d.l y l f 7 7 $ . X + O O 3 t c { l ",
"Z.d.d.w.d.J.a w y 2 < O v c t a a f f f 3 z.d.V V f { ! 4 i.N.w.| @.! { | >.8 3 , % * , 9 f l ! | i.",
"Z.U.F.M.Z.9 q f a 5 < # 9 q p t q t a v 7 { Z.V v a >.=.i.Z.6.=.R >.i.J.6.i.k 7 4 * % f H A { H { Z.",
"6.6.M.J.l f f v a t 2 # , y p t a q l V v 6.c c q f i.R w.H R R ! H | z.U.F.M.5 y 4 % 9 =.R >.i.6.s.",
"w.6.M.i.f f l l c f < > # p t y p p H H l > l f R c | 4 R { -.=.| R ! ! V V V a y 8 2 q H d.w.| =.M.",
"U.Z.a f q a f V c l , 2 # - y f f f H R l R v | | f f H >.6.H w.R { l R V c 9 a 5 < 7 - | R l f 7 9 ",
"M.l v f q q a v q , < - # - l c c c ! H f k H ! | y l R { t.=.! ! c >.#.! y a f q 5 q # l l y p y q ",
"l f f f 4 q f 5 , - = - # 2 v V c H =.f p 8 H H =.t =.=.6.| c l R =.6.p 8 q 9 9 9 l q % 8 l 8 q a f ",
"y p l y a y y 5 > , , > O 7 v v V H H y 2 -.V R 6.4 ! i.d.#.z V ! | p 8 q 5 8 8 q p f % 7 t 8 q f f ",
"9 y 8 8 q * 3 4 2 > * # $ + - l V { a 9 . =.R ! R t M.M.Z.l f | >.q 8 8 q 9 q q 7 q y % * 9 f f a l ",
"9 = $ @ # > # O O + $ % % % % O = c t O % >.{ | R 9 Z.1 2 8 l 6.q 3 5 t q y f y f f y % - 2 l n ! w.",
". . O + O O O O # * > > > > - - - = # $ % X ! =.| 3 > 9 V | 9 * % , * < p f f l q < 2 % * , 8 p V d.",
"# # O # l >.P.Z.P.P.i.= J.M.p d.=.j l l O % O = , 2 , , * + # = % % # @ # @ + # % = * % # # 2 8 , 9 ",
", 2 * % ! | >.V ! =.R a R =.l R l l R l $ % = l 7 > $ + = # + # $ % * 2 l H { q l H H R 3 = +   . = ",
", 2 , % c H w.H | { >.P >.! R { l l v l , R y w.{ r f % 9 { { l a 7 f M.V >.>.4 v V H R w.z.w.q , * ",
"3 3 , * H H c { n v | ! a H 6.v f V ! R 8 y | ! ! p v # > =.R c R R l P.6.w.%.M.a | | c d.F.w.-.H V ",
"8 8 5 = l ! c R H ! ! { l l H H R ! R y = >.| { | V v ! % i.! V H >.z.Z.M.c F.M.d.V f -.=.=.=.{ R ! ",
"9 w 8 2 p y f q 8 f +.R v f l R H R R - = R / ! ! ! H V > p | { v f a 8 q 9 < 5 p Z.! { i.i.=.! ! H ",
"q 9 t , q 5 * 0 p p y { H V V V H H X + % 4 =.! ! H v = > i.M.J.H.q t 7 9 a f f { | f w.! 6.=.| | H ",
"V g t > - , > , f f a l ! ! c $ = , 4 = $ % > , ! | % 2 p u v f f f f 8 y 9 y v t =.6.i.6.6.=.V =.{ ",
"| v p O * $ O * f 8 - O   O = i.i.7 7 9 t 9 = O + @ > 2 l =.{ c l f y y y q l { / { w.d.d.>.| i.=.>.",
"l l f o 8 7 9 f - % , 5 8 z.! V ! c c H / c { , @ % 4 7 6.>.H H H f q y w R R v ! l v ( c >.i.d.6.f ",
"q a a 3 H | R q ; = Z.p f =.| w.V { V >.>.w.9 8 = $ 3 8 { c m H t q y q v v v f l c l v { 6.d.z.w.i.",
"* * * % # = 7 8 8 = p f l y l V >.! V V a l f 7 8 . 5 7 z.>.H H q p y ! ! R c v c H H l l c V d.>.| ",
"H ! R | c , > 2 , # f f v l f 8 H V { V c l l 7 8 # 5 q M.{ f 8 p q H =.c { l p l R R H 8 f c c i.i.",
">.| ! l H v V -.d.$ # l v | 8 a ! ! H { p l l t 9 # q M.H q H 8 p f | v ! d.V H >./ V l p a y a | i.",
"6.! { V c | w.p.t., * > / | l l f n l f f g V { 0 9 t c f f a 8 4 R { z.d.6.{ w.H l l c t p f v 5 * ",
"| =.>.{ >.6.z.Z.# z.y - >.6.H t V l l f f c V R l r = l f l 4 3 ! w.i.6.6.>.R ! ! H f y f l v H - - ",
"6.=.| | { 6.! = a F.q - o V f v H y.q l f f l t q = % p l q 3 7 q M.6.6.>.=.1.| =.| | Z.>.H { c > > ",
"y | V H 5 Z.| =.>.J.2 , % 8 t 9 $ = q p a V q $ = = - = & % O $ 8 8 l H R | 7 4 7 t c 9 q 7 5 5 , ; ",
"6.f V w.M.=.d.R f f 3 5 > + $ 5 f o y 8 = - > l >.! 7 2 4 @ a a p f f $ $ = = > , , > 4 > % $ % - ! ",
"H V >.| d.z.! | | V y 5 < @ $ - - > 8 >.s./ 6.6.i.a 7 3 4 * a p l O @ , , , , , , , H 6.a q % $ y l ",
"3 t { | < ! ! H =.V 4 4 < - = >.w.P.= P.P.F.z.d.f y 8 6 5 * o 9 q a a a p p p y 8 9.>.>.a 9 t , o { ",
"8 y v 7 q 5 7 ! ! y p 5 > @ - =.H H l F.f t t f a < 8 9 4 = 8 q f V V l l f f f z.F.R.w.p V q 7 $ # ",
"- - O , < < 2 < t q t q < . 8 V R | q a f a l s q q p 5 4 - t a =.d.i.z.6.2.d.z.| v J.4 H l f 4 # 4 ",
"= O + O @ = , 2 4 q f y 3 . l H H H 9 a y f l l t a f 3 8 - c J.i.P.i.S _ R t l c c H f v | 7 < # p ",
"8 q 4 $ # # # = < 7 2 X $ # { R ! ! - q t q l i V c 9 q t > v =.| a p l | a l l y f > * 9 >.2 8 # >.",
"q c V V 5 8 w.t t , + $ $ * ! { | { 7 f f y q p 6 8 t t l 8 ! V f f R { 6.l l c ! a 7 3 z.3 y 3 = | ",
"8 t p q 8 * ! t.6.7 2 # $ 5 { 6.w.6.l a p q f l 5 y n q v q f f f { R =.i.l H k p 9 4 / V 8 f 3 $ w.",
"p f l t y 4 d.6.w.q , , $ p 6.d.d.6.H y q f R f v A H a p t f l c ! H { { v v v l p 8 y f { 7 4 @ H ",
"v l f f l = i.=.>.>.4 5 $ H 6.Z.w.d.f p a | ! f R c v f l 8 8 f a K { d.V v H ! ! q t p a m 5 4 $ R ",
"f y a y V * 6.=.=.>.{ H l V M.P.P.d.y a V { w.>.c k l a c 9 . 8 t t 2 , 4 d y 4 = 9 c v L H 4 4 $ O.",
"f t q l f * | { =.w.{ V q l i.Z.i.i.a l { | 6.z.v f f f = - O - = 3 , > * = - l y f v ! c | y + $ c ",
"y q v c f * d.| i.>.! | 3 l u.a V | f c { >.| c y 5 , > = $ # $ + # $ % - > * = 2 q y >.6.R l + = o ",
"a ! | H R = O ` ! =.6.c * ! c l c w.q 5 2 3 9 f , < 2 $ > 7 9 9 $ p < < < < , % # * = * $ $ $ = | { ",
"! | c H V , X { { >.=.f * f l l l p 3 4 5 8 5 9 , 8 4 2 7 8 8 7 # M.z.z.{ w.( =.9 q l q y * $ , { ! "
};
