/* XPM */
static char *a33aa560a8b344479213c544230e38770qFXXLon0fTefmTo[] = {
/* columns rows colors chars-per-pixel */
"50 50 123 2 ",
"   c #010203",
".  c #060807",
"X  c #090806",
"o  c #050609",
"O  c #05090C",
"+  c #0A0A0C",
"@  c #0E100F",
"#  c #000612",
"$  c #040E15",
"%  c #0D0E12",
"&  c #020C18",
"*  c #0D1114",
"=  c #0D161A",
"-  c #121314",
";  c #191816",
":  c #13151A",
">  c #161A1E",
",  c #1A1C1C",
"<  c #1E201E",
"1  c #041823",
"2  c #171920",
"3  c #1B1D24",
"4  c #1D1F29",
"5  c #1D2325",
"6  c #13212A",
"7  c #1F212B",
"8  c #192D38",
"9  c #222324",
"0  c #292927",
"q  c #20242D",
"w  c #252A2C",
"e  c #2A2A2C",
"r  c #252C32",
"t  c #282D31",
"y  c #263236",
"u  c #2C3135",
"i  c #273538",
"p  c #2A3639",
"a  c #293A3C",
"s  c #313334",
"d  c #35373A",
"f  c #333A3B",
"g  c #3B3C3E",
"h  c #2C403F",
"j  c #36403F",
"k  c #373C40",
"l  c #3E3E41",
"z  c #2D4342",
"x  c #2F4844",
"c  c #2F4945",
"v  c #394143",
"b  c #314B47",
"n  c #304A46",
"m  c #324E49",
"M  c #34534C",
"N  c #365950",
"B  c #375A50",
"V  c #375A50",
"C  c #395F53",
"Z  c #3B6557",
"A  c #3C6557",
"S  c #3A6256",
"D  c #3C6658",
"F  c #3C6658",
"G  c #3F6E5D",
"H  c #3E6B5C",
"J  c #434542",
"K  c #444445",
"L  c #444445",
"P  c #464847",
"I  c #44494C",
"U  c #4B4D4C",
"Y  c #4C4D51",
"T  c #4C5051",
"R  c #4F5150",
"E  c #4D5152",
"W  c #565654",
"Q  c #595957",
"!  c #545559",
"~  c #565759",
"^  c #575958",
"/  c #5F5F5D",
"(  c #406E5D",
")  c #40715F",
"_  c #407260",
"`  c #417361",
"'  c #417562",
"]  c #447B66",
"[  c #457C67",
"{  c #447A65",
"}  c #467C68",
"|  c #467E68",
" . c #47836A",
".. c #47826A",
"X. c #48826B",
"o. c #49846C",
"O. c #4A886F",
"+. c #4B8C71",
"@. c #4C8F73",
"#. c #4C8E72",
"$. c #4D9174",
"%. c #4E9175",
"&. c #4E9476",
"*. c #4E9275",
"=. c #509678",
"-. c #509779",
";. c #519B7B",
":. c #519B7B",
">. c #55A381",
",. c #57A985",
"<. c #59AC86",
"1. c #5AAE88",
"2. c #5AB089",
"3. c #5CB38B",
"4. c #5CB58C",
"5. c #5DB88E",
"6. c #5EB98E",
"7. c #5EB98F",
"8. c #5FBD91",
"9. c #5FBC91",
"0. c #60BD91",
"q. c #60BE92",
"w. c #60BE92",
/* pixels */
"                                O 1 8 6 &     + + .           5 O   u *     + % -   .   .   . 9 .   ",
"                                  & & $ =     + +           + d 9 O 5 = > O   * - . .       e E - . ",
"          .   .   . .             # o $ 7   , + o           * I w   % 2 :   *               ! E     ",
"              . .                       + e , + .     o o   9 j w + - O   .   2 7 2       0 / Q     ",
"                                  + - .   - .         4 s o o f w + * , > . 3 7 7 7 :   X 9 W /   J ",
"                                  . - +   .       o   O d 9   5 $ o = t d 7 B q.q.q.r : , < g ^ g E ",
"                                  % 7 7 7 7 7 7 7 7 2 % Y !   O = r v k 7 y q.[ r | q.7 9 > s P U - ",
"+ +       . .       .       o + - 7 q ) $.3.5.2.+.b 7 7 4 s , , s s s q q =.q.r l r q.q 7 9 ,   %   ",
"+ +       .   % : * o       : 7 a 8.q.q.q.q.q.q.q.q.q.q.y q 7 7 7 7 7 z q.q.A K K K D $.7 s ,     . ",
"  . .   * 7 7 B ` Z q 7 . > r q.q.q.q.q.q.q.q.q.q.q.q.q.l l y q.q.q.q.q.q.q.r K K K r q.x 2 9 w     ",
"  . + : q q.q.q.q.q.q.&.7 q q.q.q.q.q.q.q.q.q.$.l r q.q.l l y q.q.q.q.q.q.q.d K K K d q.X.3 9 O   + ",
"      4  .q.q.q.q.q.q.5.7 ] q.q.q.q.q.q.q.q.q.z K g q.q.u u G q.q.q.q.q.q.q.g K K K g q.;.3 = . + - ",
"      7 q.q.q.q.q.q.q.y &.q.q.q.q.q.q.q.q.q.q.r K L q.q.q.q.q.q.q.q.q.q.q.q.L K K K L q.2.4 =     + ",
"      7 q.q.>.;.q.q.q.7 q.q.q.q.q.q.q.q.q.q.q.$.l r q.q.q.q.q.q.q.q.q.q.q.q.L K K K K q.9.4 O X ; - ",
"      7 q.a 7 7 F 5.q.7 q.q.q.q.q.q.q.q.q.q.q.q.r X.q.q.q.q.q.q.q.q.q.q.q.q.L K K K L q.2.4     - . ",
"    + 7 r :     3 7 7 7 q.q.q.q.q.q.q.q.q.q.q.q.q.q.q.q.q.q.q.q.q.q.q.q.q.q.g K K K g q.;.3         ",
"    o , 7 o           7 q.q.>.q.q.q.q.q.q.q.q.q.q.q.q.q.q.q.q.q.q.q.q.q.q.q.u K K K u q.H *   .     ",
"      o 2   O % % O   7 q.q.` q.q.q.q.q.q.q.q.q.q.q.q.q.q.q.q.q.q.q.q.q.,.q.r K K K r q.x -     o   ",
"  +         2 w w >   7 q.q.$.q.q.q.q.q.q.q.q.q.q.q.q.q.q.q.q.q.q.q.q.q.B q.D K K K D @.7 -   o 9 * ",
". . % +               % z 8.q.z 5.q.q.q.q.q.q.q.q.q.q.q.q.q.q.q.q.5.' ) M ] q.r l r q.q 4     o O o ",
".   + o   + o     . + . 7 q q.8.M ,.q.q.q.q.q.q.q.q.q.q.q.q.q.G 7 7 : * 7 7 q.q.q.q.=.7 o       o   ",
"+         + o     . +   : 7 >.q.q.r q.q.q.q.q.q.q.q.q.q.q.q.>.7 : o     + 4 D q.q.q.r %           . ",
".         .         o       7 D 5.q.q.i i S F S a q.q.q.8.q 7   .     o + . 3 7 7 7 :       . o     ",
"      o . .       . o . . .   3 7 a 5.q.q.q.q.q.q.q. .h 7 +     o . o + +                           ",
"    o % + . .     . o + % o     % 7 q G @.3.9.3.@.b 7 7 %     o   + - .             .     + -   O   ",
"      . .             o + .         3 M m r q r m ( 3               O       .             @ 5       ",
"  . .       +     .         +     - 9 7 q $.5.,.M 7 d o O   . O o o O         +                 + o ",
". o o                   . + o     . O o o 7 q r 7 > : o     . O $ * O o = -         .   o       + + ",
"    .                     .         .     7 q.q.7   .           > = O * > * + 9     9 +         O   ",
"          .       . .     + 2 7 7 4 :     7 q.q.q   % o O 3 4 7 7 2   O % . . -   . e e ,     + - . ",
"        X - +     + + > 7 y $.q.q.2.F 7 7 7 q.q.a + , 7 r $.1.5.=.) 7 2         +   + , 3       +   ",
".         .       . + 7  .8.q.q.q.q.q.' q 7 8.q.m + 7 7 5.q.q.q.q.q.o.7       . .       O           ",
"- + +               3 7 a @.q.q.q.q.q.q.q.m ,.q.' 7 B q.q.q.q.q.q.q.q.1.7 % %       + + o o o       ",
".                       % 7 1.q.q.q.q.q.q.q.;.q.2.7 q.q.q.q.q.8.5.a M z q 7 7 + .     o .           ",
"o                         + x q.q.q.q.q.q.q.F G q.{ q.q.q.p M q.q.q.q.q.q.q.5.q 7                   ",
"                          + y 8.O.C b M F <.;.a q.>.q.q.| +.q.q.q.q.q.q.q.q.q.+.q %                 ",
"                      3 7 r ;.q.q.q.q.q.q.5.a y q.o.q.X.<.q.q.q.q.q.q.q.q.q.q.q.q.7                 ",
"                  o 7  .q.q.q.q.q.q.q.>.' r p p q <.r | q.q.q.q.q.q.q.q.q.q.q.q.q.x %     o   . .   ",
".                 3 a q.q.q.q.q.q.q.] p Z 2.q.q.>.r b q.q.q.q.q.q.q.q.q.q.q.q.q.q.] : +         . . ",
".               7 q q.q.q.q.q.q.q.q.q.q.q.q.q.q.q.q.a 8.q.q.q.q.q.q.q.q.q.q.q.q.q.5.7 : . .     .   ",
"              o r 5.q.q.q.q.q.q.q.q.q.q.q.q.q.q.q.q.D ' q.q.q.q.q.q.q.q.{ a q S ,.q.7 .             ",
"            o : { q.q.q.q.q.q.q.q.q.q.q.q.q.q.q.q.q.G ` q.q.q.q.q.q.q.z 3 % 9 4 7 =.4       .       ",
"            + : o.q.q.q.q.q.q.q.q.q.q.q.q.q.q.q.q.q.a M q.q.q.q.q.q.q.7     e 0 : i 3 + o     .     ",
"    o         % S q.q.;.p q p @.8.q.q.q.q.q.q.q.q.q.7 7 q.q.q.q.q.q.y :         . 7 . o .           ",
"  o + + o + % . 7 ;.O.4 % % + 4 7 b q.q.q.q.q.q.5.q : : z q.q.q.5.M 3   .   .     3 + - +         . ",
"  . + .         7 b a % . +     % 7 z ;.<.8.>.O.r 7 o - 7 @.5.>.y 7 +           .     % - o     . + ",
"                + 7 7     .         * 4 4 4 3 2 O     % + 3 4 3 %   ,           % +   + > - o       ",
"                    7                 + .   + . . 3 -               9     .     o o . + % + O - .   ",
"                    3                       + . + s 9 .             +   .                           ",
"                    .                         .   +                     + .                       . "
};
