/* XPM */
static char *a06140f494264c1fe5e9f160d95915b6NHnoPf78CEAsuJlP[] = {
/* columns rows colors chars-per-pixel */
"50 50 151 2 ",
"   c #010102",
".  c #060807",
"X  c #090806",
"o  c #050609",
"O  c #090708",
"+  c #05090B",
"@  c #0A0A0B",
"#  c #0C100E",
"$  c #11100E",
"%  c #000612",
"&  c #040C13",
"*  c #0D0E11",
"=  c #020C18",
"-  c #100F10",
";  c #0D1113",
":  c #0D151A",
">  c #131414",
",  c #1A1612",
"<  c #1C1916",
"1  c #14161A",
"2  c #161A1C",
"3  c #1B1C1C",
"4  c #211C17",
"5  c #221C19",
"6  c #1E201E",
"7  c #25201C",
"8  c #29221D",
"9  c #041823",
"0  c #161B21",
"q  c #1B1C22",
"w  c #1C2325",
"e  c #13212A",
"r  c #1C232A",
"t  c #192D38",
"y  c #222424",
"u  c #2B2622",
"i  c #252A27",
"p  c #292927",
"a  c #21232A",
"s  c #252B2C",
"d  c #2A2A2B",
"f  c #322A23",
"g  c #2D312E",
"h  c #38312C",
"j  c #272F31",
"k  c #2A2A34",
"l  c #2F2F3B",
"z  c #2A3135",
"x  c #323333",
"c  c #3F3731",
"v  c #32343C",
"b  c #333A3B",
"n  c #3C3E3C",
"m  c #463A32",
"M  c #4B3F35",
"N  c #36403F",
"B  c #4E4137",
"V  c #4D423B",
"C  c #514439",
"Z  c #56483C",
"A  c #584A3E",
"S  c #343442",
"D  c #373C40",
"F  c #3B3A46",
"G  c #3B3B49",
"H  c #3F3F50",
"J  c #394143",
"K  c #484645",
"L  c #464847",
"P  c #464949",
"I  c #5E4F42",
"U  c #5F5146",
"Y  c #434354",
"T  c #474759",
"R  c #4B4B5E",
"E  c #4D5151",
"W  c #565654",
"Q  c #595957",
"!  c #565759",
"~  c #575958",
"^  c #5F5F5D",
"/  c #605146",
"(  c #665548",
")  c #685749",
"_  c #6E5C4D",
"`  c #705E4F",
"'  c #615F5E",
"]  c #725F50",
"[  c #756252",
"{  c #7A6655",
"}  c #7E6958",
"|  c #4E4E62",
" . c #515166",
".. c #56566C",
"X. c #58586F",
"o. c #5B5B72",
"O. c #5F5F78",
"+. c #63637D",
"@. c #836E5D",
"#. c #87715F",
"$. c #8A7562",
"%. c #927B67",
"&. c #947C69",
"*. c #98806B",
"=. c #9E8570",
"-. c #A58B75",
";. c #A28872",
":. c #B4977F",
">. c #6A6A85",
",. c #6E6E8A",
"<. c #70708D",
"1. c #767694",
"2. c #747492",
"3. c #787897",
"4. c #7D7D9D",
"5. c #7F7FA0",
"6. c #B69980",
"7. c #BC9E85",
"8. c #BEA086",
"9. c #8080A2",
"0. c #8484A6",
"q. c #8686A8",
"w. c #8989AC",
"e. c #8D8DB1",
"r. c #8D8DB1",
"t. c #9393B9",
"y. c #9494BB",
"u. c #9696BC",
"i. c #9595BB",
"p. c #B6B6B6",
"a. c #C2A389",
"s. c #CAA98E",
"d. c #CFAE91",
"f. c #D3B195",
"g. c #DAB79A",
"h. c #DCB99B",
"j. c #ECC6A6",
"k. c #EEC8A8",
"l. c #F3CCAB",
"z. c #F9D1AF",
"x. c #FED5B3",
"c. c #FED5B3",
"v. c #9E9EC6",
"b. c #9A9AC2",
"n. c #A1A1CB",
"m. c #A0A0C9",
"M. c #A3A3CD",
"N. c #A2A2CC",
"B. c #A3A3CD",
"V. c #C5C5C5",
"C. c white",
/* pixels */
"                                + 9 t e =     @ @             w +   z ;     @ * >             y .   ",
"                      y.          = = & :     @ @ o     q S o b a + q : 2 +   ; >           d E >   ",
"                      M.M.y.      % o & r X 3 @ o     q M...o P s   * q 1   :               ! E     ",
"                      1.n.r.M.S         @ d 3 @     q M.M.2.@ N s @ > o       @ O         p ^ Q   X ",
"                      S n.@ M.M.y.        >       q M.M.M.t.  b s @ ; 3 2               X y W ^   K ",
"                        M.5.M.M.M.M.S           q M.M.M.M.M.  w & o : j v 2   o   o   @ 3 6 n ~ n E ",
"                        M.M.n.M.M.M.M.t.      y.M.M.M.M.M.M.  + : j J D z 2     o 2 @ @ y 2 x L E > ",
"@ @                     M.M.o.M.M.M.M.M.M.G u.M.M.M.M.M.M.M.  3 x x x s +         q 1 > i y 3   *   ",
"@ @                     1.M.* M.M.M.M.M.M.M.M.M.M.M.M.M.M.M.  1 @         v 4.M.M.M.  # g x 3       ",
"                        S M.S M.M.M.n.k               H M.M.    k 1.M.M.M.M.M.M.M.o.  # 3 3 a i     ",
"      r. .q               u.y.M.M.F   -.x.x.x.x.x.x.x.[   q M.M.M.M.M.M.M.M.M.M.M.    # i 2 y o   @ ",
"      +.M.M.9.T *         1.M.M.w.  -.x.x.x.x.x.x.x.x.x.=.  H M.M.M.M.M.M.M.M.M.M.  & & z : :   @ > ",
"        v.M.<.M.M.M.M.M.9.M.M.t.  z.x.x.x.x.x.x.x.x.x.x.x.x.f @ M.M.M.M.M.M.M.M.Y   o : z : :     @ ",
"          M.O.v.M.M.M.M.M.M.M.  k.x.x.x.x.x.x.x.x.l._ 8 x.x.x.) @ M.M.M.M.M.M.M.  o   1 r & + X < > ",
"          k M.q M.M.M.M.M.M.Y Z x.x.x.c.h.s.s.h.c.x.x.x.x.x.x.x.f H M.M.M.M.M.>.  * 0 a 1 + o   ,   ",
"    @ > ;   4.M.2 M.M.M.M.M.  x.x.x.x.x.x.x.x.x.x.x.x.x.x.x.x.x.x.  M.M.M.M.M.    2 s q             ",
"    o 1 2 o   M.M.M.M.M.M.u.  x.&.;.f.x.x.x.j.s.:.@.V <   -   m l.{ G M.M.M.t.  * * @               ",
"      o @   o o M.1.u.M.M.R } *.M.M.M.M.M.b.M.M.M.M.M.M.M.M.M.M.G x.  M.M.M.* : %       3 @     o   ",
"o @         q   T M.k M.M.1 s.k.G ,.t.M.M.M.u.q.1...F 2   @ O Y 5 x.  M.M.M.>.      o   g ,   o a ; ",
"    * @           t.M.M.b.  x.x.x.x.x.x.j.x.x.x.x.x.x.x.x.x.x.x.x.x.  M.M.M.M.M.r.o           o + o ",
"    @ o   @       S M.M.3.  x.x.k._ x.x.x._ x.x.x.x.k._ x.x.x._ x.x.5 w.M.M.M.M.M.M.n.a         o   ",
"@           H b.M.M.M.M.X.  x.x.( x.x.x.x.x., x.x.x.( x.x.x.x.x., x.A >.M.M.M.M.M.M.M.M.M.Y       o ",
"o       k q.M.M.M.M.M.M.R   x.d.l.x.x.x.x.x.%.x.x.d.l.x.x.x.x.x.%.x.` o.M.M.M.M.M.M.M.M.M.l         ",
"        r.M.M.M.M.M.M.M.S   x., 8./ u   $ 7 U #.x., 8./ u   $ 7 U #.=.G M.M.M.M.M.M.M.|             ",
"    o @   r.M.M.M.M.M.M.q   x.  C.C.C.@ C.C.C.@.x.  C.C.C.@ C.C.C.@.8.k M.M.M.M.M...      @ >   o   ",
"      @     r.M.M.M.M.M.*   x.c C.C.C.C.C.C.C.a.x.c C.C.C.C.C.C.C.a.h.1 M.M.M.,.          ; w       ",
"              r.M.M.M.M.@   x.k.V.C.C.C.C.C.K x.x.k.V.C.C.C.C.C.K x.l.o M.M.0.                  @ o ",
"  o o           r.M.M.M.    x.x.$.p.C.C.C.' j.x.x.x.$.p.C.C.C.' j.x.l.  M.M.M.b.        o       @ @ ",
"                  r.M.@     x.x.x.z.( h $.x.x.x.x.x.x.z.( h $.x.x.x.z.    ,.M.M.M.k   @         o   ",
"                  | @ #.@   x.x.4 c.x.x.x.x.  x.x.  x.x.x.x.x.m x.x.k.@ x.  u.M.M.M.w.  @     @ >   ",
"        @ > @   r.M.  x.<   x.x.x.f.( { l.x.  x.x.  x.c.@./ 6.x.x.x.f.8 x.7.q M.M.M.M.u.        @   ",
"o           @ M.M.M.  x.f   x.x.x.x.x.x.x.x.  x.x.  x.x.x.x.x.x.x.x.6.m x.l.@ M.M.q.      o o       ",
"> @ @     Y M.M.M.M.  x.C   x.x.x.x.x.x.x.x.4 x.x., x.x.x.x.x.x.x.x.#.[ x.M  .w.    @ @ o o o       ",
"          a 5.M.M.M.,.  I   x.x.x.x.x.x.x.x.f.&.&.f.x.x.x.x.x.x.x.x.M @.M   M.v.      o             ",
"o             G y.M.M.@     x.x.x.x.x.x.x.x.x.Z I x.x.x.x.x.x.x.x.x.8     ,.M.M.                    ",
"                    Y M.r.  x.x.x.x.x.x.x.x.x.x.x.x.x.x.x.x.x.x.x.x.  M.M.M.M.M.o.                  ",
"                    u.M.M.a 7.x.x.x.x.x.x.x.x.x.x.x.x.x.x.x.x.x.x.x.  M.M.M.M.M.M.                  ",
"                  > M.M.M.+.Z x.x.x.x.x.x.x.x.x.x.x.x.x.x.x.x.x.x.c.  M.M.M.M.M.M.o.      o         ",
"                  n.M.M.M.M.  x.x.x.x.l.@.7 @ f 8 4 , ] j.x.x.x.x.&.G M.M.M.M.y.4.+.  @             ",
"                k M.M.M.w.2.  x.x.x.Z l.x.x.x.x.x.x.x.x.z.Z x.x.x.@ y.M.@           @ 1             ",
"                              ) x.x.x.x.x.x.x.x.x.x.x.x.x.x.x.x.x.  M.M.S   @                       ",
"            o               o   x.x.x.x.x.x.x.x.x.x.x.x.x.x.x.x.%.o ,.M.+.  y 3                     ",
"            @                   5 x.x.x.x.x.x.x.x.x.x.x.x.x.x.x.            d d       @ o           ",
"    o                     o       B x.x.x.x.x.x.x.x.x.x.x.x.x.8   @ @ o               o             ",
"  o @ @ o @ *     @ @ o @ *         , x.x.x.x.x.x.x.x.x.x.x.8                       @ > @           ",
"  o @                     @             M c.x.x.x.x.x.x.%.                            * > o       @ ",
"                                    @ @   @ %.g.j.j.6.m             3           * @   @ 2 > o       ",
"        o                             @                             y           o o   @ * @ o >     ",
"                                            @ o @ x y               @   o                           ",
"                                                  @                     @                           "
};
