/* XPM */
static char *_8e5c69e4258401ce2d5b5ea27e12345YZcXj50RvCiTzavV[] = {
/* columns rows colors chars-per-pixel */
"50 50 239 2 ",
"   c #010203",
".  c #080705",
"X  c #080806",
"o  c #040609",
"O  c #080609",
"+  c #06090C",
"@  c #0A0B0C",
"#  c #060807",
"$  c #0D100E",
"%  c #0B0E11",
"&  c #030C15",
"*  c #0D1114",
"=  c #0D151B",
"-  c #071216",
";  c #121314",
":  c #191816",
">  c #12161A",
",  c #191B1C",
"<  c #211F1C",
"1  c #1E201E",
"2  c #27241F",
"3  c #0B1A24",
"4  c #131D24",
"5  c #1C1E21",
"6  c #1A2227",
"7  c #1B2A34",
"8  c #1E3038",
"9  c #222424",
"0  c #252B2C",
"q  c #282929",
"w  c #2E302F",
"e  c #2C3235",
"r  c #283337",
"t  c #373837",
"y  c #302F2C",
"u  c #413F3B",
"i  c #36403F",
"p  c #4E473F",
"a  c #1B3344",
"s  c #1A374B",
"d  c #07395A",
"f  c #0D3C5C",
"g  c #093757",
"h  c #123D5B",
"j  c #193B54",
"k  c #152C40",
"l  c #243C4C",
"z  c #263843",
"x  c #0D3E61",
"c  c #14415E",
"v  c #1B425D",
"b  c #1F4051",
"n  c #2B4453",
"m  c #284657",
"M  c #354B58",
"N  c #32454D",
"B  c #0E4163",
"V  c #0E4569",
"C  c #134463",
"Z  c #1A4563",
"A  c #1D4965",
"S  c #134669",
"D  c #154A6C",
"F  c #1C4C6B",
"G  c #1B4F71",
"H  c #164D71",
"J  c #1D5374",
"K  c #1F516F",
"L  c #224B66",
"P  c #224E6A",
"I  c #284B64",
"U  c #24526E",
"Y  c #2B526B",
"T  c #365566",
"R  c #245472",
"E  c #295673",
"W  c #2B5975",
"Q  c #255B7A",
"!  c #2B5D7B",
"~  c #255778",
"^  c #335C75",
"/  c #315E7A",
"(  c #3D5F77",
")  c #27607D",
"_  c #33627D",
"`  c #3B647D",
"'  c #3B6175",
"]  c #464949",
"[  c #4D5254",
"{  c #595957",
"}  c #554F48",
"|  c #645B52",
" . c #6E645A",
".. c #485C68",
"X. c #445F71",
"o. c #58646A",
"O. c #446579",
"+. c #636767",
"@. c #6A7378",
"#. c #757672",
"$. c #888278",
"%. c #96897B",
"&. c #1D6983",
"*. c #2E6482",
"=. c #336482",
"-. c #3B6781",
";. c #3D6B84",
":. c #386F88",
">. c #3D7790",
",. c #416D85",
"<. c #426F88",
"1. c #4D6E82",
"2. c #44738C",
"3. c #4B758C",
"4. c #4A7287",
"5. c #55778B",
"6. c #4A7690",
"7. c #4D7B93",
"8. c #477590",
"9. c #547C94",
"0. c #5B7F93",
"q. c #657C8C",
"w. c #1575F2",
"e. c #1071F1",
"r. c #307AEC",
"t. c #3C8098",
"y. c #58839A",
"u. c #46879F",
"i. c #64879A",
"p. c #718F93",
"a. c #7BA59F",
"s. c #519CB3",
"d. c #568FA7",
"f. c #7796A5",
"g. c #6393B9",
"h. c #6A8FAA",
"j. c #5EA0B5",
"k. c #7CA5A2",
"l. c #6DACB9",
"z. c #1586F4",
"x. c #1B98F6",
"c. c #2788F4",
"v. c #3A87F3",
"b. c #3B96F7",
"n. c #2D92F1",
"m. c #1EA5F6",
"M. c #25AAF7",
"N. c #35ACF6",
"B. c #26B7F9",
"V. c #39B2F5",
"C. c #6396C9",
"Z. c #6499D1",
"A. c #66AEC1",
"S. c #6CA8CF",
"D. c #4495F5",
"F. c #579BF6",
"G. c #5899E7",
"H. c #49A9F7",
"J. c #5AA6F7",
"K. c #49B8F9",
"L. c #59B5F7",
"P. c #5FA6EF",
"I. c #66B7E9",
"U. c #6DB4ED",
"Y. c #4BB9CC",
"T. c #29C7FA",
"R. c #37C6F7",
"E. c #2EDAFD",
"W. c #2CD3FB",
"Q. c #3AD4F9",
"!. c #33DDFC",
"~. c #39D9FA",
"^. c #33E5FC",
"/. c #3BE5FA",
"(. c #34EAFE",
"). c #3CEAFC",
"_. c #3EE6F6",
"`. c #2FE1FD",
"'. c #62C6CB",
"]. c #68C8CC",
"[. c #6ECCD1",
"{. c #76D2D5",
"}. c #4ADCEA",
"|. c #58CDF6",
" X c #47D8FA",
".X c #58D9F7",
"XX c #50CDF0",
"oX c #69C6EC",
"OX c #69D9F7",
"+X c #70D0F1",
"@X c #5CE2EE",
"#X c #43EBFB",
"$X c #4CECFB",
"%X c #47E4F9",
"&X c #54ECFC",
"*X c #59E7F9",
"=X c #59F1FC",
"-X c #6AE7EF",
";X c #63ECFC",
":X c #67E7F9",
">X c #74EAF8",
",X c #6BF2FC",
"<X c #64F2FC",
"1X c #73F2FB",
"2X c #7CF3F9",
"3X c #50C7D6",
"4X c #8A8984",
"5X c #9A9489",
"6X c #869493",
"7X c #9A9B98",
"8X c #8F8D8A",
"9X c #A8A49E",
"0X c #82A8A5",
"qX c #88A4B2",
"wX c #94B0B7",
"eX c #A0B6BF",
"rX c #929D9A",
"tX c #9EB7C1",
"yX c #88AFC8",
"uX c #A2BAC4",
"iX c #8BB6EC",
"pX c #B2C3CB",
"aX c #91D7EF",
"sX c #AED7EF",
"dX c #88ECF7",
"fX c #87F4FA",
"gX c #96F5FA",
"hX c #9FEBF4",
"jX c #A3F7FA",
"kX c #ADF9FB",
"lX c #A3F9FC",
"zX c #B7FAFC",
"xX c #A8EBF0",
"cX c #C4D1D6",
"vX c #C5FDFE",
"bX c #C8FDFE",
"nX c #C6F2F8",
"mX c #CFE8F0",
"MX c #E4EBED",
/* pixels */
"                                o 3 7 6 &     > , > % o       6 +   e *     @ % ;   .   .   . 9 #   ",
"                                  & & & 6 z T ` 4.4.,.' n 7 * t 0 o 5 * , +   * ; . .       q [ > . ",
"          .   .   . .             & o & T 2.2.2.7.7.y.y.y.7.T ] 0   % 5 >   *               { [     ",
"              . .                       n 2.2.2.2.2.7.y.y.7.M i 0 @ ; +   .   @ O         q { {     ",
"                                  % r n U <.2.2.2.2.2.7.y.y.l N r @ * , , O             X 9 { {   ] ",
"                                + r 9.3.R ;.;.2.2.2.2.2.7.qX` 2.,.l 6 w t ,   o   o   @ , 1 t { t [ ",
"                              7 O.;.2.2.W -.2.;.;.2.2.2.2.tX,.7.2.! ,.M r ,     o 6 e e 9 , w ] ] ; ",
"@ @       . .       .       7 y.y.3.=.2.-./ 2.2.;.;.;.<.;.qX_ 2.` _ 2.;.M       * 0 e q q 9 ,   %   ",
"@ @       .           o 4 T ` y.6.2._ ;.2.W 2.2.2.<.,.;.i.E -.,._ ;.,.-.` 7     o +   $ w t ,     . ",
"  . .                 n <.3.<.2.2.2.;._ 2.^ 2.2.2.<.2.;.9.U 2.2._ 3.9.;./ 9.z     o   $ , , 9 0     ",
"  . @ @ .           o ,.2.y.,.2.2.y.f.1.P L _ -.;.;.-.-.` E <.;.;.2.2._ 3.0.2.4 . %   @ q , 9 +   @ ",
"                  + M 0.3.3.i._ 9.mXcXMX1.R E R U R R U U L j v ^ 2._ <.2.7.7.^ > % & & r = = . @ ; ",
"        @         z i.6.;._ 7.f.qXf.P 0.qXR Z v P P P L P R Z L A j ` 2.;.<.h.-.T & o = r - =     @ ",
"        #         T 9.2.2.;.=.' L L ! E p.L A Z E U L R E U W R h R P ,.;.4.wXy.3.*   , 6 & + X : > ",
"                + ` 7.2.2.,.2.P R _ R =.-.0._ ` _ / W =.=.P =.R R ! ! L ^ pXuX;.E I 6 0 > o     : . ",
"    @ ; *       = l m ;.2.;.^ U ! ! v W _ eXqXS.Z.C.C.Z.g.9.-.A W ! R Z 1.MX9._ 9.9.e 5             ",
"    O > , O     M 6.;.W U / U A U A L ` g.sXmXiXr.F.F.F.F.F.C.;.P A E P O.eX;.2.0.y.8         .     ",
"      o @   + % X.9.2.,.2._ R P L v ,.C.F.P.v.U.r.v.D.F.D.D.F.g.^ =.W W 1.i.,.2.2.7.n   , @     o   ",
"  @         5 0 O.3.2.2.2.;.U / R W g.P.J.D.w.r.G.w.D.D.c.v.v.G.y._ R ` i.^ ;.2.2.2.T   w :   o 9 * ",
". . % @         T <.2.2.;._ A U E y.P.J.L.D.e.e.G.e.n.c.e.w.b.J.U.tX( ^ _ R ;.;.,.T z         o + o ",
".   @ O   @ O   @ 7 I L Y Y R E ` S.H.H.L.H.z.z.n.z.c.w.w.c.b.L.sXyXW P W U L v v 4             O   ",
"@         @ O     7 i.W U P A A 2.I.H.H.H.L.n.z.x.x.x.z.z.x.H.+XaXI.` P R R P ! =.l               . ",
".                 8 f.y.=.! ! F 6.oXK.M.N.K.N.x.x.N.x.x.x.M.K.+XaXI.<.=.=.) W *.=.m         . O     ",
"      O . .       a =.cX4.*.=.P 6.L.K.M.m.N.V.M.M.K.M.m.M.V.N.N.sXI.<.=.=.! W *.=.b                 ",
"    O % @ . .     8 P 1.f.E W A 2.L.K.M.M.M.B.B.B.|.B.B.B.B.m.N.aXoX<.! R U U ! ! s .     @ ;   +   ",
"      O .         a ! P 3.! ! W 2.|.XXB.B.B.B.B.B..XR.B.B.B.B.oX|.oX-.R P A A P P s       $ 6       ",
"  .         @     l =.U W 5.R ! 7.OX XB.T.T.T.T.R.OX XT.T.|.XXV.|.+X,.E _ =.=.R L m             @ O ",
". O O             s R A P cX0.U 8.OX XT.T.T.T.T. XdX.XQ.|.|.T.Q.OX+X<.R =.=.=.U A m .   O       @ @ ",
"    .             a P A R i.pXY 2.dX>X XW.W.Q.W.Q.dX:X X.XW.Q..XOX+X<.F ! ! ! F v j 9 @         +   ",
"          .       s ~ F R ~ _ 5.wXnXnXzX XW.W. X XdX:XW.Q.W. X*X.XOX,.A ! ! ! U Z j q q ,     @ ; . ",
"        X ; @     s Z A A A A c 7.:X.XOXxX~.E. X;XfX*XE.E.~.%X~. X:Xy.c ' Y F F A Z > , 5       @   ",
".         .       s F R R K ~ Q d.:X X!..XhX!.!.;XgX*X!.!.%X!.E.&X:Xg.4._ F ! Q ! ! 3   +           ",
"; @ @             s Z Z C c Z Z d.>X&X!.~.-X%X/.,XjX,X%X^.!.E.!.*X>Xl.f.F Z F F R ! 4 @ o o o       ",
".               % R ~ Q A C R R j.1X*X%X`.^.^./.,XkX1X$X^.^.^./.&X>XtX^ Z h C C C Z % O .           ",
"O               = R G Q A C R ~ A.;X&X#X^.^.^.$X,XkX1X/.^._./.#X&X-X,.Q F R Q Q =./ *               ",
"                = C C ~ C C F F A.*X#X^.^.).&X;X1XzX,X(./.$X)././.:X<.R C R Q Q ! ~ =               ",
"                = C C C C C C D A.&X^.^.#X#X<X,X1XzX1X;X*X(.^.^.).:X<.J A F G R ~ ~ =               ",
"                = c C h c h h c j.=X/.^.(.&X=X,XfXzX2X2X).(.(.(./.@X` G C C C c C Z =     O   . .   ",
".             @ Z J F C F J F c s.=X&X).(.&XfX,XjXvXkX<X(.(.(.(.#X+XW ! J J J C F J v *         . . ",
".           + j J J C C C J F C s.&X&X#X(.$XgX,XzXbXkX,X).(.:X:X$X-X/ =.J J J C F D C a X .     .   ",
"          ; k C C C C c c c h f s.).).).(.(.$X1XzXbXlX<X(.*X&X).=X>X_ R J J G f B x h h 3           ",
"        t 7X6X` D D D D D S C f u./.(.(.(.(.$X,XzXbXgX=X(.(.(.$X=X@X/ C S D B f C D D D Z + .       ",
"      * +.4X7X9Xq.Z B B x f f f _ }.(.(.(.$X1X,XkXvXlX<X).(.).).(.Y.R S S S S C C C C x h =   .     ",
"    @ z o.@.6X7X9X7XO.f f f f f Z t._.(.(.&X1XkXvXvXzXfX=X).(.(.).>.C x x B x B B B f f f h *       ",
"  O 4 n M o.@.p.6X5X9XW D D B D C ) %X(.(.$X2XvXvXvXvXgX1X#X(.(.%X:.H C D D H H D D x D D D =     . ",
"  . 4 s n n ..o.o.#.7XO.V B f x d ) /.(.#X,XgXvXvXvXbXbXjX=X(.(.%X*.B d d x F ,.U x d f B B *   . X ",
"    * k s l n M ..@.#.X.f f g g f &./.).&X2XgXgXjXkXjXgXfXfX$X(./.&.d g g C 1.1.m j g d d g >       ",
"  u  .N l l n n M o.@.$.$.4X4X4Xf.}.}.}.}.-X-X-XdXhX>X@X}.@X@X@X@X3Xp.@.@...T n l l [ o.+.+. .| p : ",
"  o ; , y t t u t { 5X5X5X%.5XrX].'.'.[.aXxX{.{.{.[.[.].'.].[.[.'.'.l.5X5X%.$.$.} t y y y q 2 2 < X ",
"                    : u } | #.p.p.a.qXwXwX0Xa.0Xk.0X0X0X0Xk.k.k.k.k.a.6X$.#.{ :                   . "
};
