/* XPM */
static char *ff7e9fe6afec4e60c36ccc265f20d115uNkJIMByoTglB71S[] = {
/* columns rows colors chars-per-pixel */
"50 50 153 2 ",
"   c #010203",
".  c #060807",
"X  c #080806",
"o  c #040609",
"O  c #090708",
"+  c #05090B",
"@  c #0A0A0C",
"#  c #0C100E",
"$  c #000612",
"%  c #030C13",
"&  c #0C0E11",
"*  c #020C18",
"=  c #0D1114",
"-  c #0D151A",
";  c #121314",
":  c #191816",
">  c #13151B",
",  c #161A1C",
"<  c #1B1D1C",
"1  c #1E201E",
"2  c #041823",
"3  c #141B21",
"4  c #1B1D24",
"5  c #1D1F29",
"6  c #1D2225",
"7  c #13212A",
"8  c #1F212B",
"9  c #192D38",
"0  c #222424",
"q  c #252A27",
"w  c #292927",
"e  c #21242D",
"r  c #262A2B",
"t  c #2A2B2C",
"y  c #2D312E",
"u  c #242733",
"i  c #252934",
"p  c #282C33",
"a  c #252C38",
"s  c #2B2E3A",
"d  c #2C3133",
"f  c #2B313E",
"g  c #323432",
"h  c #32373B",
"j  c #35393D",
"k  c #3C3E3C",
"l  c #2E3643",
"z  c #2E394A",
"x  c #313745",
"c  c #323945",
"v  c #343C4A",
"b  c #313E51",
"n  c #37404F",
"m  c #364153",
"M  c #3B4453",
"N  c #37495F",
"B  c #3D495B",
"V  c #3E4959",
"C  c #3F4B5C",
"Z  c #3E4B5D",
"A  c #3E495A",
"S  c #3C4D65",
"D  c #3D5169",
"F  c #434542",
"G  c #464847",
"H  c #44494C",
"J  c #4B4D4C",
"K  c #464A52",
"L  c #4B4C52",
"P  c #404B5D",
"I  c #404C5D",
"U  c #4C5051",
"Y  c #4E5151",
"T  c #565654",
"R  c #595957",
"E  c #565759",
"W  c #575958",
"Q  c #5F5F5D",
"!  c #475466",
"~  c #44556C",
"^  c #485669",
"/  c #4A596B",
"(  c #4B5A6D",
")  c #415771",
"_  c #425975",
"`  c #4E5E71",
"'  c #445D79",
"]  c #455D7A",
"[  c #455E7A",
"{  c #445D79",
"}  c #46607E",
"|  c #516276",
" . c #516073",
".. c #526478",
"X. c #526479",
"o. c #56687D",
"O. c #616266",
"+. c #62656A",
"@. c #4E6B8D",
"#. c #576A80",
"$. c #596C82",
"%. c #5E738A",
"&. c #5E738A",
"*. c #506E92",
"=. c #617790",
"-. c #627891",
";. c #657B93",
":. c #647B94",
">. c #6A819B",
",. c #6A829B",
"<. c #5E86B2",
"1. c #6F87A2",
"2. c #6F89A3",
"3. c #718BA5",
"4. c #718BA5",
"5. c #748FAA",
"6. c #728CA8",
"7. c #7792AE",
"8. c #628EBA",
"9. c #638EB9",
"0. c #638EBB",
"q. c #7794B0",
"w. c #7995B2",
"e. c #7995B2",
"r. c #7C99B6",
"t. c #7F9DBA",
"y. c #6693C1",
"u. c #6693C1",
"i. c #8E8F8D",
"p. c #959693",
"a. c #9C9D9A",
"s. c #85A5C4",
"d. c #87A8C7",
"f. c #8BADCD",
"g. c #8CAECF",
"h. c #8AACCC",
"j. c #8DAFD0",
"k. c #8EB0D1",
"l. c #8FB1D2",
"z. c #8FB2D4",
"x. c #8EB1D2",
"c. c #91B4D5",
"v. c #96BBDD",
"b. c #97BDDF",
"n. c #95B9DB",
"m. c #97BDE0",
"M. c #99BFE2",
"N. c #9BC1E5",
"B. c #9DC4E8",
"V. c #9DC4E8",
"C. c #CDCCC4",
"Z. c #E6E5DB",
"A. c #FEFDEF",
/* pixels */
"                                o 2 9 7 *     @ @ .           6 +   d =     @ & ;   .   .   . 0 .   ",
"                                  * * % -     @ @           @ h 0 o 4 = , +   = ; . .       t Y ; . ",
"          .   .   . .             $ o % 8 > 8 8 8 4 4 > = + = H r   & 4 >   =               E Y     ",
"              . .               > 8 8 e / 5.f.v.B.b.z.w...s e 8 8 @ ; +   . . @ O         w Q R     ",
"                              8 -.B.B.B.B.B.B.B.B.B.B.B.B.B.B.B.,.8 = < , O             X 0 T Q   F ",
"                              8 B.B.B.B.B.B.B.B.B.B.B.B.B.B.B.B.B.8 - p h ,   o   O   @ < 1 k W k Y ",
"                    .       4 8 B.B.[ 8.C B.B.B.B.B.B.B.V 8.[ B.B.8 e c d ,     o 6 d d 0 : g G J ; ",
"@ @       . .       .   4 8 3.8 B.B.[ 8.C B.B.B.B.B.B.B.C 8.[ B.B.8 3.8 4       = r d q q 0 <   &   ",
"@ @       .             8 V B.8 B.B.C u k.B.B.B.B.B.B.B.k.u C B.B.8 B.V 8 +     o +   # y g <     . ",
"  . .                 8 g.B.B.8 B.B.B.B.B.B.B.B.B.B.B.B.B.B.B.B.B.8 B.B.f.8       o   # < < 0 r     ",
"  . @ @ .             8 B.B.B.8 B.B.V u k.B.B.B.B.B.B.B.k.u C B.B.8 B.B.B.8     . &   @ q , 0 +   @ ",
"                    @ P B.B.B.8 B.B.8.y.i B.B.B.B.B.B.B.u y.8.B.B.8 B.B.B.P @ + & & % % d - - . @ ; ",
"        @           & | B.B.B.8 B.B.C u k.B.B.B.B.B.B.B.k.u C B.B.8 B.B.B.| =   & % o - d - -     @ ",
"        .           ; %.B.B.B.8 B.B.B.B.B.B.B.B.B.B.B.B.B.B.B.B.B.8 B.B.B.%.>   + o   > 8 % + X : ; ",
"                    ; ;.B.B.B.8 B.B.B.B.B.B.B.B.B.B.B.B.B.B.B.B.B.8 B.B.B.;.; o   % 3 e > +     : . ",
"    @ ; =           > 6.B.B.B.8 B.B.[ 8.C B.B.B.B.B.B.B.V 8.[ B.B.8 B.B.B.6.8 =   , r 4             ",
"    O > , O         3 t.B.B.B.8 B.B.[ 8.C B.B.B.B.B.B.B.C 8.[ B.B.8 B.B.B.t.8 6 & & @         .     ",
"      O @   + & & + 4 g.B.B.B.8 B.B.B.B.B.B.B.B.B.B.B.B.B.B.B.B.B.8 B.B.B.f.8 3 $       < @     o   ",
"  @         4 r r , 5 N.B.B.:.8 8 ..B.B.B.B.B.B.B.B.B.B.B.B.B.` 8 8 :.B.B.M.8 % o o o   y :   o 0 = ",
". . & @             8 B.B.B.e ' m 8 I 7.B.B.B.B.B.B.B.B.B.7.M 8 z _ 8 B.B.B.8 & o             o + o ",
".   + O   @ O     . 8 B.B.| N y.y.y.} f 8 ..B.B.B.B.B.` 8 a } y.y.y.m ` B.B.8 o                 O   ",
"@         @ O     . 8 B.2.8 y.y.y.y.y.y.y.D 8 V B.n 8 S y.y.y.y.y.y.y.8 3.B.8 O + O               . ",
".         .     & 8 u B.m 8 y.y.y.y.y.y.y.y.y.8 B.8 y.y.y.y.y.y.y.y.y.8 c B.u 8 = O         . O     ",
"      O . .   . e B.B.B.u 8 b ) *.<.y.y.y.y.y.8 B.8 y.y.y.y.y.<.*.~ z 8 e B.B.B.e .                 ",
"    O & @ . . > 2.B.B.B.B.M.p a.O.j 8 8 8 8 8 8 B.8 8 8 8 8 8 u L i.i c.B.B.B.B.1.> .     @ ;   +   ",
"      O .     > ,.B.B.B.B.B. .A.A.A.Z.C.l ` u P B.n u ! l C.Z.A.A.A. .B.B.B.B.B.,.>       # 6       ",
"  .         @ & ` B.B.B.B.B.w.K p.p.+.s B.B.` B.B.B.` B.B.s +.p.p.K w.B.B.B.B.B.` &             @ O ",
". O O         . v B.B.B.B.j.r.B.B.B.B.B.B.B.g.B.B.B.f.B.B.B.B.B.B.B.r.k.B.B.B.B.v . .   O       @ @ ",
"    .           8 B.B.B.t.c B.B.B.B.B.B.B.B.v.B.B.B.v.B.B.B.B.B.B.B.B.x t.B.B.B.8 . 0 @         +   ",
"          .     8 B.B.B.c h.B.B.B.B.q.n B.B.s.B.B.B.s.B.B.v w.B.B.B.B.h.v B.B.B.8 . t t <     @ ; . ",
"        X ; @   8 B.B.B.f c.B.B.B.j.w.B.d.B.:.B.B.B.:.B.d.B.w.k.B.B.B.z.f B.B.B.8   @ 4 4       @   ",
".         .     8 B.B.B.P q.B.B.B.P B.B.%.B.d.B.B.B.d.B.%.B.B.I B.B.B.7.I B.B.B.8       +           ",
"; @ @           4 :.B.B.M.c B.B.B.7.B.B...B.B.B.B.B.B.B...B.B.7.B.B.B.c M.V.V.:.4   @ @ O o o       ",
".                 5 8 #.B.B.f B.$.B.B.B.2.o.N.B.B.B.N.o.2.B.B.B.$.B.f B.B.` 8 5 .     O .           ",
"O                     e B.B.B.v.v B.B.B.B.B.c.,.-.,.c.B.B.B.B.B.v n.B.B.V.8                         ",
"                      8 B.B.B.s.B.B.B.B.B.B.B.B.B.B.B.B.B.B.B.B.B.s.B.B.B.8       .                 ",
"                      8 B.B.B.;.B.B.B.B.=.D S i I i S D -.B.B.B.B.;.B.B.m.8 .     .                 ",
"                      5 n.B.B.| B.B.B.B.l y.y.8.@.0.y.y.l B.B.B.B.| B.B.t.3               O   . .   ",
".                     ; %.B.B.i B.B.N.m y.y.y.y.y.y.y.y.y.m N.B.B.i B.B.! &   X       @         . . ",
".                     . s N.B.o.B.B.,.e M M M M M M M M M e ,.B.B.#.B.,.8 . @ @ . . @ > . .     .   ",
"                        8 a B.m.B.B.B.v.( B.B.B.B.B.B.B.( v.B.B.B.m.B.8 3   @ .       .             ",
"            O     .     O 5 d.V.B.B.B.B.B.^ V %.-.%.V ^ B.B.B.B.B.B.$.3     0 <             .       ",
"            @     O .     ; P B.B.B.B.B.B.B.w.%.$.%.w.B.B.B.B.B.B.B.u ;     t w       @ O     .     ",
"    O             .       O 8 N.B.B.B.B.B.B.B.B.B.B.B.B.B.B.B.B.B.h.8 O               . .           ",
"  O @ @ O @ & . . @ @ O @ & & a B.B.B.B.B.B.B.B.B.B.B.B.B.B.B.B.B.e     .   .       @ ; @         . ",
"  . @ .           . .   . @   5 3.B.B.B.B.B.B.B.B.B.B.B.B.B.B.B.%.4             .     & ; O     . @ ",
"                          .     8 m h.N.B.B.B.B.B.B.B.B.V.m.d.x 8   <           & @   @ , ; O       ",
"                                  & 4 8 8 8 8 8 8 8 8 8 8 5 4 &     0     .     O O   @ & @ O = .   ",
"                    .                       @ + @ g 0 .             @   .                           ",
"                    .                         .   @                     @ .                       . "
};
