/* XPM */
static char *cdda17638e424ef8e6ff8f855f7edbf4fwm8KBllIy7gNoOH[] = {
/* columns rows colors chars-per-pixel */
"50 50 153 2 ",
"   c #010102",
".  c #090605",
"X  c #060907",
"o  c #0C0805",
"O  c #050608",
"+  c #090708",
"@  c #05090B",
"#  c #0A0B0B",
"$  c #120C07",
"%  c #120E0A",
"&  c #13110F",
"*  c #18100A",
"=  c #010B14",
"-  c #0E0F11",
";  c #020C18",
":  c #0D1113",
">  c #0C151A",
",  c #131314",
"<  c #181411",
"1  c #1B1815",
"2  c #141618",
"3  c #161A1B",
"4  c #1B1C1B",
"5  c #23170E",
"6  c #26190F",
"7  c #271A10",
"8  c #2A1B11",
"9  c #231D19",
"0  c #1E201E",
"q  c #2A231D",
"w  c #322014",
"e  c #3C2717",
"r  c #041823",
"t  c #1A1F22",
"y  c #1D2123",
"u  c #13212A",
"i  c #192D38",
"p  c #222423",
"a  c #2D2621",
"s  c #262B27",
"d  c #292927",
"f  c #272B28",
"g  c #2B2A2A",
"h  c #322A23",
"j  c #332E2B",
"k  c #2C312E",
"l  c #3B322A",
"z  c #2E3132",
"x  c #323432",
"c  c #3C3D3B",
"v  c #422B1A",
"b  c #4B311E",
"n  c #41362E",
"m  c #553822",
"M  c #5A3A23",
"N  c #463A31",
"B  c #4B3F35",
"V  c #443D38",
"C  c #4D4036",
"Z  c #47403A",
"A  c #51463C",
"S  c #5A4B3F",
"D  c #634027",
"F  c #6A452A",
"G  c #6F482C",
"H  c #744C2E",
"J  c #7A4F30",
"K  c #7E5232",
"L  c #434542",
"P  c #464847",
"I  c #4E4D4C",
"U  c #5C4D40",
"Y  c #534F4C",
"T  c #5D544D",
"R  c #4D5151",
"E  c #555452",
"W  c #595957",
"Q  c #565759",
"!  c #575958",
"~  c #5F5F5D",
"^  c #615144",
"/  c #665548",
"(  c #6C5B4D",
")  c #645B55",
"_  c #725F50",
"`  c #776354",
"'  c #7B6756",
"]  c #7C6857",
"[  c #7E6959",
"{  c #7A7A7A",
"}  c #825533",
"|  c #8B5B37",
" . c #8E5C38",
".. c #925F39",
"X. c #96623B",
"o. c #9B653D",
"O. c #9F683F",
"+. c #A0683F",
"@. c #86715F",
"#. c #A46B41",
"$. c #AA6F43",
"%. c #B47547",
"&. c #B77748",
"*. c #8B7562",
"=. c #8F7865",
"-. c #907966",
";. c #967E6A",
":. c #9B826D",
">. c #9F8670",
",. c #A18772",
"<. c #A18772",
"1. c #A78C76",
"2. c #A58B75",
"3. c #A98E77",
"4. c #AA8F78",
"5. c #AE927B",
"6. c #B3977F",
"7. c #898888",
"8. c #B59880",
"9. c #B59880",
"0. c #B89B82",
"q. c #BC9E85",
"w. c #A4A4A4",
"e. c gray74",
"r. c #C5A58B",
"t. c #C5A58B",
"y. c #CAAA8E",
"u. c #C9A98E",
"i. c #CCAB90",
"p. c #CEAD92",
"a. c #D7B498",
"s. c #D8B598",
"d. c #DAB79A",
"f. c #DCB99B",
"g. c #DDB99C",
"h. c #E0BC9E",
"j. c #E2BE9F",
"k. c #E4BFA1",
"l. c #EBC5A6",
"z. c #EDC7A7",
"x. c #ECC6A6",
"c. c #EEC8A8",
"v. c #EEC8A8",
"b. c #F1CAAA",
"n. c #F3CCAB",
"m. c #F9D1AF",
"M. c #F9D1AF",
"N. c #FCD3B2",
"B. c #FED5B3",
"V. c #FED5B3",
"C. c #DADADA",
"Z. c #F3F3F3",
"A. c #FFFFFF",
/* pixels */
"                                @ r i u ;     # #             y @   z :     # - 2             p X   ",
"                                  ; = @             o .           @ t : 3 @   : 2           g R 2   ",
"                                    * b o.&.&.&.&.&.&.&.&.&.&.&.| *     2   :               Q R     ",
"                                  F &.&.&.&.&.&.&.&.&.&.&.&.&.&.&.%.}         # +         d ~ W     ",
"                            b $.&.&.&.&.&.&.&.&.&.&.&.&.&.&.&.&.&.&.&.&.J %             + p E ~   L ",
"                          %.&.&.&.&.&.&.&.&.&.&.&.&.&.&.&.&.&.&.&.&.&.&.&.&.H     X   # 4 0 c ! c R ",
"                        F &.&.&.&.&.&.&.&.&.&.&.&.&.&.&.&.&.&.&.&.&.&.&.&.&.&.$   y z z p 3 x P I , ",
"# #                   &.&.&.&.&.&.&.&.&.&.H M 5 o   o 6 v K &.&.&.&.&.&.&.&.&.&.#.  k f s p 4   -   ",
"# #                 #.&.&.&.&.&.&.O.$     A ] y.z.m.l.r.:.n     8 %.&.&.&.&.&.&.&. .  X k x 4       ",
"                    &.&.&.&.&.&.o.    q i.B.B.B.B.B.B.B.B.B.9./   % G &.&.&.&.&.&.&.    4 4 p f     ",
"    # #           } &.&.&.&.K $   f.B.B.B.B.B.B.B.B.B.B.B.B.B.B.B.1.q   $.&.&.&.&.&.#.. 4 3 p X   # ",
"                X.&.&.&.&.7   =.B.B.B.B.B.B.B.B.B.B.B.B.B.B.B.B.B.B.B.d.    &.&.&.&.&.$.  > >   # , ",
"        #       &.&.&.&.+.  r.B.B.B.B.B.B.B.B.B.B.B.B.B.B.B.B.B.B.B.B.B.`   m &.&.&.&.&.  > >     # ",
"        X     D &.&.&.$   b.B.B.B.B.B.B.B.B.B.B.B.B.B.B.B.B.B.B.B.B.B.B.B.B.  M &.&.&.&.$ @ @ + 1 , ",
"              &.&.&.w q v.B.] q S :.<.=.h B.B.B.B.B.B.B.B.q U ' <.=.` % =.z.B.    &.&.&.}       ,   ",
"    # , :   M &.&...  B.B.B.B.B.B.B.B.B.B.B.B.B.B.B.B.B.B.B.B.B.B.B.B.B.B.B.B.N.n e &.&.&.          ",
"    O 2 3   #.&.%.5 ( B.B.B.B.B.B.B.B.B.B.B.B.B.B.B.B.B.B.B.B.B.B.B.B.B.B.B.B.B.h.  &.&.&.          ",
"      O   F &.&.o   B.B.B.m.B.B.B.B.B.B.N.B.B.B.B.B.B.B.B.B.B.B.B.B.B.B.B.B.B.B.B.l M &.&.      @   ",
"  #       %.&.%.  0.B.B.B.@.B.B.B.B.B.B.B.9 h.B.B.B.B.B.B.1 B.B.B.B.B.B.B.B.9 B.B.B.  m &.7   @ p : ",
"    - #   &.&.H a B.B.B.B.B.B.B.B.B.B.B.B.*.l B.B.B.B.B.N.=.B.B.B.B.B.B.B.B.*.m.B.B.  o &.e   @ @ @ ",
"    # O   &.&.  b.B.B.$ d.B.B.B.B.B.B.B.B.B.d.n.B.B.B.m.k.B.B.B.B.B.B.B.B.B.B.< n.B.3.  &.M     O   ",
"#         &.&.  B.B.B.>.B.B.b.a.3.@.-.:.4.l.B.U B.B.B.A 1.B.B.B.d.<.:.=.@.:.p.>.U B.B.S D M       O ",
"O         &.%.  B.B.B.9.5.l   % & 4 g g p .   & B.B.B.9 d.5.h # # ,   g c j <   % B.B.3.w b   O     ",
"      O   F F ^ B.B.B.Z.A.A.A.A.{ { A.A.A.A.A.# B.B.B.# e.A.A.A.A.{ # A.A.A.A.Z.# B.B.B.  o         ",
"    O - #   w 5.B.B.B.w.A.A.A.A.A.A.A.A.A.A.A.A B.B.B.A w.A.A.A.A.A.A.A.A.A.A.w.A B.B.B.    2   X   ",
"      #     $ p.B.B.B.E A.A.A.A.A.A.A.A.A.A.A.>.B.B.B.:.Y A.A.A.A.A.A.A.A.A.A.E :.B.B.B.    0       ",
"  O           z.B.B.B.@.Y A.A.A.A.A.A.A.A.A.I B.B.B.B.B.@.A.A.A.A.A.A.A.A.A.A.*.B.B.B.B.        # O ",
"  O O         m.B.B.B.B.k.7.A.A.A.A.A.A.A.4 k.B.B.B.B.B.B.4 A.A.A.A.A.A.A.A.4 B.B.B.B.B.        # # ",
"          ;.# z.B.B.B.B.B.j C.A.A.A.A.A.I k.B.B.B.B.h B.B.k.I C.A.A.A.A.C.I k.B.B.B.B.B.        X   ",
"        l B.q p.B.B.B.B.B.B.z.>.a # A >.B.B.B.B.B.B.B.B B.B.B.z.A # # A v.B.B.B.B.B.B.B.  B.    2   ",
"        k.B._ @.B.B.B.B.B.B.B.B.B.B.B.B.B.B.B.a B.B.B.2.B B.B.B.B.B.B.B.B.B.B.B.B.B.B.B.  B.2.  #   ",
"O       m.B.;.^ B.B.B.B.B.B.B.B.B.B.B.B.B.B.B.6.q.B.B.l.< B.B.B.B.B.B.B.B.B.B.B.B.B.B.B.  B.k.      ",
"2 # #   2.B.N.  B.B.B.B.B.B.B.B.B.B.B.B.B.B.B.B.k.C ^ & t.B.B.B.B.B.B.B.B.B.B.B.B.B.B.B.  B.h.      ",
"          B.B.  B.B.B.B.B.B.B.B.B.B.B.B.B.B.B.B.B.B.B.B.B.B.B.B.B.B.B.B.B.B.B.B.B.B.B.:.C B.l       ",
"O         ;.B.  b.B.B.B.B.B.B.B.B.B.B.B.B.B.B.B.B.B.B.B.B.B.B.B.B.B.B.B.B.B.B.B.B.B.B.N ;.B.        ",
"                a B.B.B.B.B.B.B.B.B.B.B.B.B.B.B.B.B.B.B.B.B.B.B.B.B.B.B.B.B.B.B.B.B.*.  2.          ",
"                  l B.B.B.B.B.B.B.B.B.B.B.B.B.B.B.B.B.B.B.B.B.B.B.B.B.B.B.B.B.B.B.B.                ",
"                    B.B.B.B.B.B.B.B.B.B.B.B.B.B.B.B.B.B.B.B.B.B.B.B.B.B.B.B.B.B.B.n.      O         ",
"                    ( B.B.B.B.B.B.B.B.B.n._ l # Z Y ) T V   ( 6.B.B.B.B.B.B.B.B.B..   #             ",
"                      g.B.B.B.B.B.B.B.B.B.B.B.B.B.B.B.B.B.B.B.B.B.B.B.B.B.B.B.B.(   # 2             ",
"                      q z.B.B.B.B.B.B.B.B.B.B.B.B.B.B.B.B.B.B.B.B.B.B.B.B.B.B.;.                    ",
"            O             b.B.B.B.B.B.B.B.B.B.B.B.B.B.B.B.B.B.B.B.B.B.B.B.B.5.                      ",
"            #               r.B.B.B.B.B.B.B.B.B.B.B.B.B.B.B.B.B.B.B.B.B.n.(   d       # O           ",
"    O                     O     r.B.B.B.B.B.B.B.B.B.B.B.B.B.B.B.B.B.B.]               O             ",
"  O # # O # -     # # O # -       d.B.B.B.B.B.B.B.B.B.B.B.B.B.B.B.n.:.              # , #           ",
"  O #                     #           9 y.B.B.B.B.B.B.B.B.B.g.:.                      - , O       # ",
"                                    # #                             4           - #   # 3 2 O       ",
"                                      #                             p           O O   # - # X ,     ",
"                                            # X # x p               #   O                           ",
"                                                  #                     #                           "
};
