/* XPM */
static char *_503c1071ab74b4790e267fb58246d7d8SCHiFWcndUMjRZs[] = {
/* columns rows colors chars-per-pixel */
"50 50 163 2 ",
"   c #010203",
".  c #060807",
"X  c #090806",
"o  c #040609",
"O  c #090708",
"+  c #06090B",
"@  c #0A0A0C",
"#  c #0C100E",
"$  c #000612",
"%  c #040C13",
"&  c #0C0E11",
"*  c #020C18",
"=  c #071216",
"-  c #0D1114",
";  c #0D151A",
":  c #0E1A1F",
">  c #07141A",
",  c #121314",
"<  c #191816",
"1  c #14151B",
"2  c #161A1D",
"3  c #1B1C1C",
"4  c #1E201E",
"5  c #041823",
"6  c #0D1E25",
"7  c #161B22",
"8  c #1B1C24",
"9  c #1D1F2A",
"0  c #1E2225",
"q  c #1F212B",
"w  c #13212A",
"e  c #1A2B32",
"r  c #192D38",
"t  c #222424",
"y  c #252A27",
"u  c #292927",
"i  c #21242C",
"p  c #252A2B",
"a  c #2A2A2C",
"s  c #2D312E",
"d  c #242630",
"f  c #262B32",
"g  c #292C34",
"h  c #362732",
"j  c #3D2934",
"k  c #2B3134",
"l  c #2E3239",
"z  c #2C3C3D",
"x  c #313235",
"c  c #323332",
"v  c #33363C",
"b  c #35393C",
"n  c #3C3E3C",
"m  c #422A36",
"M  c #4B2D39",
"N  c #502E3A",
"B  c #2C403F",
"V  c #36403F",
"C  c #363641",
"Z  c #373C40",
"A  c #3C3E43",
"S  c #2F4844",
"D  c #2D4341",
"F  c #304142",
"G  c #3B4143",
"H  c #3F4348",
"J  c #364A48",
"K  c #325049",
"L  c #3B564F",
"P  c #3B5C53",
"I  c #3B5651",
"U  c #3C6658",
"Y  c #3B6156",
"T  c #424344",
"R  c #464847",
"E  c #42444B",
"W  c #44494C",
"Q  c #4A4B4D",
"!  c #4B4C51",
"~  c #444550",
"^  c #4D5151",
"/  c #4C5253",
"(  c #595957",
")  c #55555A",
"_  c #57595A",
"`  c #5F5F5D",
"'  c #5C5C5E",
"]  c #565654",
"[  c #406D5D",
"{  c #5F5F6C",
"}  c #5E6362",
"|  c #467E68",
" . c #417461",
".. c #646465",
"X. c #6C6C6B",
"o. c #676673",
"O. c #717070",
"+. c #777875",
"@. c #787A77",
"#. c #7D7C7A",
"$. c #73727F",
"%. c #813C49",
"&. c #94424E",
"*. c #974250",
"=. c #9E4452",
"-. c #A74755",
";. c #AE4857",
":. c #AE4858",
">. c #B94C5A",
",. c #B94C5B",
"<. c #B24A59",
"1. c #CB5161",
"2. c #D25262",
"3. c #D45463",
"4. c #E05767",
"5. c #E25767",
"6. c #E75868",
"7. c #E85869",
"8. c #F15B6C",
"9. c #F05B6C",
"0. c #F15B6C",
"q. c #48846C",
"w. c #4C8F73",
"e. c #4E9175",
"r. c #529C7B",
"t. c #81817E",
"y. c #7A7886",
"u. c #807F8D",
"i. c #5AAF88",
"p. c #55A480",
"a. c #5DB58D",
"s. c #5EB98F",
"d. c #5FBB90",
"f. c #60BE92",
"g. c #858481",
"h. c #8C8A86",
"j. c #81808E",
"k. c #908F8A",
"l. c #92918C",
"z. c #9E9C96",
"x. c #A4A19A",
"c. c #A8A69F",
"v. c #9896A5",
"b. c #9B98A8",
"n. c #A19EAE",
"m. c #AAA9A0",
"M. c #B0AEA5",
"N. c #B5B3AA",
"B. c #BBB9AE",
"V. c #B9B6AC",
"C. c #AEAABB",
"Z. c #BDBBB1",
"A. c #C0BDB2",
"S. c #C4C1B6",
"D. c #C7C4B8",
"F. c #C9C6BA",
"G. c #CCCABD",
"H. c #B7B3C4",
"J. c #BEBACB",
"K. c #BAB6C9",
"L. c #CFCDC0",
"P. c #D1CEC1",
"I. c #D6D3C5",
/* pixels */
"                                o 5 r w *     @ @ .           0 +   k =     @ & ,   .   .   . t .   ",
"                    .             * * % ;     @ @           @ v i o 0 - 2 +   - , . .       a / , . ",
"          .   .   . 1 8 9 7 .     $ o % q   3 @ o           - W p   & 8 1   -               ) /     ",
"              & q q %.2.7.>.j q 8       @ a 3 @ .     o o   t V p @ , .   . . @ O         u ' (     ",
"            1 i 8.8.8.8.8.8.8.8.*.q , .   ,           8 x o o b p @ - 3 2 .             X t ] '   T ",
"          @ i 0.8.,.N 1.8.2.h ;.8.>.q @   .       o   + b i   0 % o ; f v 2   o   o   @ 3 4 n ( n / ",
"          q 0.0.M 6.8.8.8.8.8.8.8.8.M ,   . .       o   ! )   + ; f G Z k 2     o 0 k k t < c R Q , ",
"@ @       q 0.3.4.8.8.8.8.8.8.8.8.8.>.9             o   8 x 3 3 x x x p +       - p k y y t 3   &   ",
"@ @     1 %.8.4.8.8.8.8.8.8.8.8.8.8.8.q 1         i b & o   p 1 ,     o   o     o .   # s c 3     . ",
"  . .   9 2.8.2.8.8.8.8.8.8.8.8.8.8.8.q 9 . o     - -   3     @           o       o   # 3 3 t p     ",
"  . @ @ 9 6.8.6.8.8.8.8.8.8.8.8.8.8.8.q 9   .   . o o   t &       .   @ .       . &   @ y 2 t .   @ ",
"        7 >.8.=.8.8.8.8.8.8.8.8.8.8.8.q 7     &   o o   q 0 o p -     & + o   + & & % % k ; ; . @ , ",
"        @ j 8.j 8.8.8.8.8.8.8.8.8.8.8.q o     @ b 2 + q #.' i q 7   o - o   o   & % o ; k = ;     @ ",
"        . q 8.:.4.8.8.8.8.8.8.8.8.8.,.8       b G   q T I.I.S.b i 2 o o - & o   + o   1 q % + X < , ",
"          8 *.8.%.j 8.8.8.8.8.8.8.8.q @ . .   - 2 q k.I.I.I.I.I.I.#.q 9 8 - o o   % 7 i 1 o     < . ",
"    @ , -   q >.8.8.;.m -.8.8.8.8.q { q 7 . o 7 b V.I.I.I.I.I.I.I.I.I.S.e.q q 1   2 p 8             ",
"    o 1 3 o   q m <.8.8.8.8.8.&.q o.J.v.i - 8 A I.I.I.I.I.I.I.I.I.I.I.I.I.I.S.g - & @         .     ",
"      o @   + & 1 9 q q q q q q E J.J.J.J.q v I.I.I.I.I.I.I.I.I.I.I.I.I.I.I.I.z.7       3 @     o   ",
"  @         8 p p 2 1 8 9 7 & o q C.J.J.J.v i I.I.I.I.I.I.I.I.I.I.I.I.I.I.I.I.G.q o o   s <   o t = ",
". . & @                 o &   . o q n.J.J.J.i i | w.q.v I.I.I.I.I.I.I.I.I.E I.I.q 2           o . o ",
".   @ o   @ o     . @ . o @   o     q y.J.J.J.q r.f.f.f./ I.I.I.I.I.I.Q ) I.I.I.A q             o   ",
"@         @ o     . @         o o . q q i J.J.K.q U f.f.L I.I.I.I.I.l I.I.I.I.I.c.q               . ",
".         .         o         . o 2 E I.l q J.J.q B f.f.I I.I.I.I.A I.I.I.I.I.I.I.' &       . o     ",
"      o . .       . o . .         q N.G.i i C y.q  .f.f.l I.I.I...G.I.I.I.I.I.I.I.l.2           .   ",
"    o & @ . .     . . @ & o     - A I.z.J f.K z a.f.f.f.g.I.I...L.I.I.I.I.I.I.I.I.I.q     @ ,   .   ",
"      O .             . @ .     q I.I.F.i f.f.f.f.f.f.k I.I.X.P.I.I.I.I.I.I.I.I.I.I.q     # 0       ",
"  . .       @     .         @ 2 X.I.I.I.B.e.f.f.f.d.k I.I.Z D.I.I.I.I.I.I.I.I.I...q 1           @ o ",
". o o                   . @ 7 q I.I.I.I.I.G.W l @.N.I.I.l I.I.I.I.I.I.I.I.I.I.f 7 . .   o       @ @ ",
"    .                     . q f I.I.I.I.I.I.I.I.I.I.I.S.z.I.I.I.I.I.I.I.I.I...q   . t @         .   ",
"          .       . .       i A.I.I.I.I.I.I.I.I.I.I.I...I.I.I.I.I.I.I.I.I.f 8 ,   . a a 3     @ , . ",
"        X , @     @ @ o   9 m.I.g.N.I.I.I.I.I.I.I.I.l I.I.I.I.I.I.I.I.' q &     O   @ 8 8       @   ",
".         .       . @ .   q I.I.I i.A I.I.I.I.I.I._ I.I.I.I.I.I.I.I.f 9 o     . .       .           ",
", @ @                   - ' I.t.f.f.f.z #.I.I.I.l B.I.I.I.I.I.I.I.q g q q . &       @ @ o o o       ",
".                       q F +.L f.f.f.} I.I.I.t.I.I.I.I.I.I.I.G.q q J.J.) 8 @   .     o .           ",
"o                       q s.i p.f.f.a.Z.I.I.I.l I.I.I.I.I.I.I.E 9 q j.J.H.q .                       ",
"                      . i f.f.f.f.f.g I.I.I.h.I.I.I.I.I.I.M.l 8 + o q o.J.b.q     .                 ",
"                      7 q.f.f.f.f.f.t.I.I.I.O.I.I.I.I.I.z.q q 7 %     q q K.$.q   .                 ",
"                      q f.f.f.f.f.f.s.Z N.! I.I.I.I.I.l.q * 7 -         + q H.~ 7         o   . .   ",
".                     q f.f.f.f.f.f.f.f.r.x.I.I.I.I.h.q = * o ; + o       o q C.d q   @         . . ",
".                     q f.f.f.f.f.f.f.f.[ I.I.I.I.I.i ; ; 6 % o % o     . . 9 l v.i 1 1 . .     .   ",
"                    @ S f.f.f.f.f.f.f.Y E I.I.I.l.i ; = : e e   + o         @ 7 d n.q .             ",
"            o     . 7 w.f.f.f.f.f.f.f.! I.I.I.x.q -   o % : ; + o   o .     t 3 2 q u.q     .       ",
"            @     . 8 f f.f.f.f.f.f.P I.I.I.N.q       o = > + +     1 @     a u     q W q     .     ",
"    o             .   7 i f.f.f.f.f.H I.I.F.q ,   .     o +   .   @ @ o               q 9 &         ",
"  o @ @ o @ & . . @ @ o q D f.f.f.s.x.I.I.! 8 @           o o           .   .       @ 2 q o       . ",
"  . @ .           . .   . 7 q f a.z I.I.g.9 .   .   o -                         .     & , o     . @ ",
"                          .   & q q @.g q   . @       & @ o         3           & @   @ 2 , o       ",
"                                    1 8 @   @ . . 8 ,               t     .     o o . @ & @ . , .   ",
"                    .                       @ . @ x t .             @   o                           ",
"                    .                         .   @                     @ .                       . "
};
