/* XPM */
static char *_a38998ffe804e0ce77c8e4293276712DfN5mL25m83qvezL[] = {
/* columns rows colors chars-per-pixel */
"50 50 172 2 ",
"   c #010203",
".  c #080705",
"X  c #060807",
"o  c #080806",
"O  c #040609",
"+  c #090708",
"@  c #05090C",
"#  c #0A0B0C",
"$  c #0D100E",
"%  c #000612",
"&  c #040C13",
"*  c #0D0E11",
"=  c #060D19",
"-  c #0D1114",
";  c #0D151A",
":  c #0E1A1F",
">  c #071318",
",  c #121315",
"<  c #191816",
"1  c #14151A",
"2  c #151A1D",
"3  c #1B1C1C",
"4  c #1E201E",
"5  c #091B24",
"6  c #151C22",
"7  c #1B1D22",
"8  c #172025",
"9  c #1E2226",
"0  c #1E2229",
"q  c #13212A",
"w  c #1A2B32",
"e  c #192D38",
"r  c #222324",
"t  c #252A27",
"y  c #292927",
"u  c #23242A",
"i  c #262A2B",
"p  c #2B2A2C",
"a  c #2A272B",
"s  c #322D2E",
"d  c #2D312E",
"f  c #272931",
"g  c #2A2D35",
"h  c #322F32",
"j  c #2C3133",
"k  c #2F3139",
"l  c #323234",
"z  c #3A3332",
"x  c #33363D",
"c  c #333A3C",
"v  c #3C3E3C",
"b  c #413633",
"n  c #4E3D35",
"m  c #463B37",
"M  c #513F36",
"N  c #4C413B",
"B  c #544036",
"V  c #594337",
"C  c #54453E",
"Z  c #654A3A",
"A  c #694C3A",
"S  c #71513C",
"D  c #7C573E",
"F  c #7F583E",
"G  c #343740",
"H  c #343840",
"J  c #393C44",
"K  c #3E424C",
"L  c #434344",
"P  c #464847",
"I  c #40444D",
"U  c #484B4C",
"Y  c #594C48",
"T  c #5F524D",
"R  c #464A55",
"E  c #4C4B52",
"W  c #494E59",
"Q  c #534F52",
"!  c #4D5151",
"~  c #4E525B",
"^  c #595957",
"/  c #575958",
"(  c #5F5F5D",
")  c #595655",
"_  c #645044",
"`  c #6D5545",
"'  c #735A49",
"]  c #7C5E4B",
"[  c #6B5D57",
"{  c #775F51",
"}  c #746157",
"|  c #545964",
" . c #5A5F6A",
".. c #545A66",
"X. c #5D636F",
"o. c #61656F",
"O. c #616672",
"+. c #636873",
"@. c #696E78",
"#. c #6C727C",
"$. c #79767A",
"%. c #835A3F",
"&. c #895E3F",
"*. c #8A5F42",
"=. c #835D44",
"-. c #8E6141",
";. c #84644D",
":. c #8A644A",
">. c #946543",
",. c #9A6743",
"<. c #9D6944",
"1. c #8C6A51",
"2. c #836553",
"3. c #9A7456",
"4. c #A46D45",
"5. c #A96F46",
"6. c #A16E4A",
"7. c #AD7146",
"8. c #B27447",
"9. c #B77748",
"0. c #B0825D",
"q. c #B78660",
"w. c #B98861",
"e. c #C28E64",
"r. c #E7A670",
"t. c #EAA871",
"y. c #6E7583",
"u. c #747B87",
"i. c #757D8A",
"p. c #787B83",
"a. c #79818F",
"s. c #7D8493",
"d. c #7F8998",
"f. c #8A898F",
"g. c #828792",
"h. c #838995",
"j. c #858D9C",
"k. c #8C929C",
"l. c #929399",
"z. c #878FA0",
"x. c #8B92A1",
"c. c #8F98A9",
"v. c #9499A2",
"b. c #939DAE",
"n. c #999FAB",
"m. c #959FB0",
"M. c #9AA1AC",
"N. c #9CA5B5",
"B. c #9CA7B8",
"V. c #9DA8B9",
"C. c #96A0B1",
"Z. c #A2A8B4",
"A. c #A5ADBA",
"S. c #A9B0BC",
"D. c #A4AFC1",
"F. c #AEB6C2",
"G. c #AFBBCE",
"H. c #A8B3C5",
"J. c #B0B7C3",
"K. c #B1B9C5",
"L. c #B2BDCC",
"P. c #B1BDD0",
"I. c #B7C0CC",
"U. c #BCC4D1",
"Y. c #C1CAD7",
"T. c #C4CDD9",
"R. c #C7D0DC",
"E. c #C9D2DF",
"W. c #CDD5E2",
"Q. c #D1DAE7",
"!. c #D0D9E6",
"~. c #D1DAE7",
/* pixels */
"                                O 5 e q &     # # .           9 @   g u -   # * ,   .   .   . r X   ",
"                                  & & & ;     # #           # c u * u u.K 2   - , . .       p ! , . ",
"          .   .   . .             % O & 0   3 # +           - U i u s.P.h.K 6               / !     ",
"              . .                       # a 3 # .     + +   9 c f s.P.a.k.Y.x , +         y ( ^     ",
"                          1 0 , # # , .   , * , -     7 l O 1 g j.P.i.N.Q.Q.Z.0         o r ) (   L ",
"                        # J R +.I u 7 , * , k @.| 7 * 1 l u K x.G.P. .T.Q.Q.W.~ * O   # 3 4 v / v ! ",
"                    . # g A.X.L.D.c.y.L V b x.Q.Y.E B M g X.B.P.P.P.B.h.Q.Q.Q.M.7 9 j j r 2 l P U , ",
"# #       . .       . - X.Q.X.P.P.P.P.$.4.<.f.Q.E.[ 7.:.s.H.P.P.P.P.P.u.K.Q.Q.R.g i j t t r 3   *   ",
"# #       .           * @.Q.W a.a.a.a. .=.9.] L.l.>.7.Y i.s.V.b.V.b.a.y.@.Q.Q.Q.~ ,   $ d l 3     . ",
"  . .                 , @.Q.J.F.F.F.F.F.$.6.7.) ] 8.;.v.F.F.Y.U.Y.U.F.F.I.Q.Q.Q.y.1   $ 3 3 r i     ",
"  . # # .             , @.W.g.+.+.+.+.+.| T -.S 8.*.E O.+.+.+.+.+.+.+.+.+.u.W.Q.h.7   # t 2 r @   # ",
"                      , @.A.i.P.P.P.P.P.P.j.` 8.&.Q D.P.P.P.P.P.P.P.P.P.P.j.x.Q.k.7 & & j ; ; . # , ",
"        #             1 #.W.g.+.+.+.+.+...T 8.,.D >.E +.+.+.+.+.+.+.+.+.+.u.W.Q.h.6 O ; j > ;     # ",
"        X             1 #.Q.J.L.E.U.F.F.p.6.8.Y >.9.2.Z.F.F.F.F.F.F.F.F.I.Q.Q.Q.#.1   2 0 & @ o < , ",
"                      , #.Q.| N.G.A.m.m.} 8.4.k.[ 9.>.#.m.m.m.m.m.m.m.x.#.Q.Q.Q.R 1 6 u 1 @     < . ",
"    # , -             2 o.Q.X.P.P.P.P.H.} 9.,.S.[ 9.,.| C.L.P.P.P.P.P.i.K.Q.Q.T.f 7 i 7             ",
"    + 1 3 +           3 g A.X.L.D.c.y.W m 4.<.g.{ 9.D u H i.H.P.P.P.B.h.Q.Q.Q.n.9 - #         .     ",
"      O #   @ * * @   * * J R O.K u 1 * r F 7.%.4.7.n x 1 u ..C.P.P. .Y.Q.Q.W.~ ;       3 #     O   ",
"  #         7 i i 2       , 7 , #       * s -.,.,.Z 9 7 O @ 7 G j.G.z.k.W.Q.v.0 O O O   d <   O r - ",
". . * #                 + *   @ .   @ +   7 ;.3.3.z -         , g i.G.x.g.F.x - O             O @ O ",
".   # +   # +     + # + + #   @       @   7 _ ' ' l 1 * +       # f d.P.x.J 2 O                 +   ",
"#         # +       #         + + @       9 e.t.r.m * +           # u u.K 1   + @ +               . ",
"+                   +           + +   - , u ;.3.3.z 1 #         .   @ u 1 +     + +         . +     ",
"      + . .       . + . . .           , # u _ ' ' h 7 ,   .     O   + # #                           ",
"    + * # . .     . + # * +           . # u <.9.8.z , .       +   # , .                   # ,   @   ",
"      + .             + # .         +   7 p 4.9.8.z ,               @       .             $ 9       ",
"  .         #     .         #     , r   2 p 4.9.7.z l + @   . @ O O O         #                 # + ",
". + +                   . # +     . @ + # s 7.9.7.s 3 +     . @ & - O O ; ,     .   .   +       # # ",
"    .                     .         .   * z 8.9.5.s #         O 2 ; @ - 2 - # r   . r #         @   ",
"          .       . .                   * b 9.9.4.p , +   #   O 8 ;   @ - . . ,   . p p 3     # , . ",
"        o , #     # # +               . 1 n 9.9.4.a 1 #   , , @ 8 ; O           @   # 3 7       #   ",
".         .       . # .     . . # #     1 Z 9.9.4.u @     # # O - * O         .         @           ",
", # #                     . # 3 3 , .   7 F 9.9.<.r . .       O -         . *       # # + O O       ",
".                         . .         . 7 Z D D A 7 # # .     * ,     #   . #         + .           ",
"+                                 . X + z 0.e.e.1.7                 + # + +                         ",
"                                    . * z ` ' ' C 1 , O   O = @ @ O   +   .                         ",
"                              .   #   , _ e.e.e.` 1 #   @ & 0 6 &         # .     .                 ",
"                                  1   0 1.e.e.e.C 1 -   & & 6 ;           #               +   . .   ",
".                               # - @ l _ ' ' ' h * - O > = @ ; @ O           o       #         . . ",
".                               - - - N q.e.e.w.z @ - & ; 5 & O & O     .   # # . . # 1 . .     .   ",
"                            .   @ * 1 V D D D S u O @ > : e w   @ O         # .       .             ",
"            +     .         .     . u ,.9.9.9.,.u     O & : ; @ O   + .     r 3             .       ",
"            #     . .             , B 8.9.9.9.%.7     O > > @ @     1 #     p a       # +     .     ",
"    +             .       +       r *.9.9.9.9.Z - .     O @   O   # # +               .             ",
"  + # # + # * . . # # + # * . . 1 V 8.9.9.9.8.b #         O O           .   .       # , #         . ",
"  . # .           . .   . #   # p ,.9.9.9.9.5.s @   + -                         .     * , +     . # ",
"                          .   . r D 9.9.7.D b 7       * # +         3           * #   # 2 , +       ",
"                                # u D 4.z 7 , X . 7 ,               9     .     + +   # * # @ , .   ",
"                    .             @ u z 1   # @ # l r .             #   +                           ",
"                    .               + 1       .   #                     # .                       . "
};
