/* XPM */
static char *_561c24d42394db297491b30f26f19950DmG5526xcbbqOMn[] = {
/* columns rows colors chars-per-pixel */
"50 50 151 2 ",
"   c #010203",
".  c #060807",
"X  c #080806",
"o  c #050609",
"O  c #090708",
"+  c #06090B",
"@  c #0A0A0B",
"#  c #0C100E",
"$  c #000612",
"%  c #040C13",
"&  c #0C0E11",
"*  c #020C18",
"=  c #0E1114",
"-  c #0D151A",
";  c #121314",
":  c #191816",
">  c #14161B",
",  c #161A1C",
"<  c #1B1D1C",
"1  c #1E201E",
"2  c #041823",
"3  c #141A21",
"4  c #1B1C22",
"5  c #1D2126",
"6  c #13212A",
"7  c #1E2229",
"8  c #192D38",
"9  c #222424",
"0  c #252A27",
"q  c #292927",
"w  c #24262E",
"e  c #26292C",
"r  c #2A2A2C",
"t  c #2D312E",
"y  c #242731",
"u  c #262931",
"i  c #2B2E36",
"p  c #2B3134",
"a  c #2E333B",
"s  c #323332",
"d  c #31353C",
"f  c #34383C",
"g  c #3C3C3D",
"h  c #45423E",
"j  c #5E503F",
"k  c #343B42",
"l  c #3B434B",
"z  c #434542",
"x  c #464847",
"c  c #424549",
"v  c #4B4D4C",
"b  c #444C53",
"n  c #4C4D51",
"m  c #445057",
"M  c #4D5151",
"N  c #465159",
"B  c #4B565E",
"V  c #48595F",
"C  c #535456",
"Z  c #595957",
"A  c #555659",
"S  c #575958",
"D  c #5C5D5D",
"F  c #4C5C63",
"G  c #535E65",
"H  c #5B5F61",
"J  c #4E6167",
"K  c #4E6168",
"L  c #536067",
"P  c #596164",
"I  c #55646C",
"U  c #5C676E",
"Y  c #54686F",
"T  c #5F696C",
"R  c #566B71",
"E  c #5C6B72",
"W  c #5E767D",
"Q  c #636365",
"!  c #617077",
"~  c #627279",
"^  c #68787F",
"/  c #92764C",
"(  c #977A4F",
")  c #F5BD64",
"_  c #637C83",
"`  c #6D7E85",
"'  c #668086",
"]  c #678389",
"[  c #6A858C",
"{  c #6B888E",
"}  c #71848A",
"|  c #7A8E96",
" . c #74949B",
".. c #7E939A",
"X. c #7B9DA4",
"o. c #7DA0A6",
"O. c #82989E",
"+. c #889FA6",
"@. c #82A6AD",
"#. c #8CA4AB",
"$. c #90A8AF",
"%. c #85ABB1",
"&. c #88AFB5",
"*. c #93ACB3",
"=. c #95AFB5",
"-. c #8AB3B9",
";. c #8BB4B9",
":. c #97B1B7",
">. c #9AB3BA",
",. c #9EB9BF",
"<. c #9DB8BE",
"1. c #90BAC0",
"2. c #91BCC1",
"3. c #9EBAC0",
"4. c #95C1C6",
"5. c #97C4C9",
"6. c #99C6CC",
"7. c #9ECDD2",
"8. c #A3C0C6",
"9. c #A5C2C8",
"0. c #AAC7CE",
"q. c #ABC9CF",
"w. c #AECCD2",
"e. c #ADCBD1",
"r. c #B0CED4",
"t. c #A0D1D6",
"y. c #A0D1D6",
"u. c #AAD1D6",
"i. c #A3D5D9",
"p. c #A4D6DB",
"a. c #A6D9DE",
"s. c #B1D0D6",
"d. c #B5D5DC",
"f. c #B5D4DB",
"g. c #B1D8DE",
"h. c #B8D8DE",
"j. c #B9D9DF",
"k. c #A7DAE0",
"l. c #A9DDE2",
"z. c #A9DDE2",
"x. c #B2DEE4",
"c. c #B9DBE0",
"v. c #BBDCE3",
"b. c #BEDFE5",
"n. c #BDDEE4",
"m. c #BADBE2",
"M. c #BEE0E7",
"N. c #BFE1E7",
"B. c #BEE0E7",
"V. c #C4E7ED",
"C. c #C4E7ED",
/* pixels */
"                                o 2 8 6 *     @ @             5 +   p =     @ & ;             9 .   ",
"                                  * * % -     @ @           @ f w o 4 = , +   = ;           r M ;   ",
"                                  $ o % 7   < @ o       @ 4 w w w 4 , 5 >   =               A M     ",
"                                        @ r < @ ; 4 w w l X.1.i.t.&.Y a w 7 , @ O         q D Z     ",
"                                  @ ;     ; + w B O.d.c.} N -.l.l.@.m ..M.r.} w w       O 9 C D   z ",
"                                    ; @     w v.V.V.V.V.V.V.h.W ] V.V.V.V.V.V.V.w.w   @ < 1 g S g M ",
"                                          5 w V.V.V.V.V.V.V.V.$.#.V.V.V.V.V.V.V.V.w w p 9 , s x v ; ",
"@ @                         @ @           4 w V.V.V.V.V.V.V.V.b.b.V.V.V.V.V.V.V.V.w e 0 0 9 <   &   ",
"@ @                         o             = L V.V.<.s D e V.V.V.V.V.U e D s <.V.V.G = # t s <       ",
"                                          w r.V.V.H / D g T V.V.V.V.j g D / P V.V.r.7 # < < 9 0     ",
"    @ @                 @ @               4 w V.V.V.h ) ( :.=.C C *.f ( ) h V.V.V.w 4 @ 0 , 9 +   @ ",
"                                            w V.V.V.V.V.V.V.i Q Q i V.V.V.V.V.V.M.w % % p - -   @ ; ",
"        @             @                     w f.V.V.V.V.V.V.b Q Q b V.V.V.V.V.V...w o - p - -     @ ",
"        .             @                     4 l b.V.V.V.V.B F c c k M.V.V.V.V.l Y 4   > 7 % + O : ; ",
"                                    X     & 7 w 1.' x.l  .l.l.2.2.l.2._ k l  .@.w & 3 w > +     :   ",
"    @ ; =             = = +           4 w d q.l l 1.l.l.l.l.l.l.l.l.l.l.l.l._ w 4 , e 4             ",
"    o > < o           , ; +         w G f.V.V.V.` u w F X.5.t.k.t.5.X.{ k w w 5 & & @               ",
"      o @   + & & +   &           ; w C.V.V.V.V.V.d.l w w w w w w w w w w R w 3 $       < @     o   ",
"  @         4 e e ,         o   @ w V.V.V.V.V.V.V.V.V.V.V.V.V.V.V.B l.l.l.l.7.w & o o   t :   o 9 = ",
"    & @                 o &   @ w C.V.V.V.V.V.V.V.V.V.V.V.V.V.V.V.s.6.l.l.l.l.l w             o + o ",
"    @ o   @ o     o @ o o @ ; w 0.V.V.V.V.V.V.V.V.V.V.V.V.V.V.V.V.V.g.l.l.l.l.i.u               o   ",
"@         @ o       @       w I V.V.V.V.V.V.V.V.V.V.V.V.V.V.V.V.V.V.3.b l.l.l.l.[ ,                 ",
"o                   o     = d h.V.V.V.V.V.V.V.V.V.V.V.V.V.V.V.V.V.V.C.a l.l.l.l.@.4           o     ",
"      o             o     w V.V.V.V.V.V.V.V.V.V.V.V.V.V.V.V.V.V.V.V.V.C.l.l.l.l.7.w                 ",
"    o & @ O         o @ w ..V.V.V.V.V.V.V.V.V.V.V.V.V.V.V.V.V.V.V.V.V.+.l.l.l.w w 4       @ ;   +   ",
"      @               @ w V.V.` V.V.V.V.V.V.V.V.V.V.V.V.V.V.V.V.V.V.V...l.l.l.w w         # 5       ",
"            @         w 9.V.^ i V.V.V.V.V.V.V.V.V.V.V.V.V.V.V.V.V.V.V.F l.l.l.w 4               @ o ",
"  o o                 w V.V.b n s.V.V.V.V.V.V.V.V.V.V.V.V.V.V.V.V.V.C.a l.l.l.w ,       o       @ @ ",
"                    > E V.V.u Q n w V.V.V.V.V.V.V.V.V.V.V.V.V.V.V.V.~ [ l.l.l.w @   9 @         +   ",
"                  > w V.V.V.V.V.V.V.w V.V.V.V.V.V.V.V.V.V.V.V.V.V.V.R l.l.m ;.w     r r <     @ ;   ",
"        O ; @     w l V.V.` V.V.V.V.n s.V.V.V.V.V.V.V.V.V.V.V.V.V.N l.l.l.w w @ @   @ 4 4       @   ",
"o               @ a M.V.V.i V.V.V.V.Q n i E V.V.V.V.V.V.V.V.V.V.| t.l.l.y &             + o o       ",
"; @ @           4 } V.V.V.n s.V.V.V.i b ` V.f.V.V.V.V.V.V.V.V.V.l l.l.a.w   &       @ @ o o o       ",
"                w V.V.V.V.Q n i E V.V.V.V.` E V.V.V.V.V.V.V.h.7.l.l.J w @   @         o             ",
"o               a V.V.V.V.V.V.V.8.=.V.V.V.a n E O.V.V.V.V.u.l.l.l.F w > o o                         ",
"              7 3.V.V.` V.V.V.V.b a V.V.V.a d ` V.V.V.>.W l.l.l.k w   o                             ",
"              w V.V.V.i V.V.V.V.u H i E V.V.V.V.V.V.k t.l.l.p.w 4         @                         ",
"              w V.V.V.n s.V.V.V.a d ` V.V.V.V.V.f.E %.l.l.2.l w           @               o         ",
"            ; ! V.V.V.Q n w V.V.V.V.V.V.V.V.V.l 4.l.l.l.i w 3 - + o           O       @             ",
"            w c.V.V.V.V.V.V.V.V.V.V.V.V.V.E  .l.l.l.] w W w u o % o         @ @     @ >             ",
"            w V.V.V.V.V.V.V.V.V.V.V.f.w F l.l.l.l. .w l.l.l._ u + o         @                       ",
"            w V.V.V.V.V.V.V.V.V.w.w w 4 w t.l.l.l.l.K k l.l.l.{ e   o       9 <                     ",
"          @ l V.V.V.V.V.V.V.V.8.w w o   5 V l.l.l.l.p.w _ [ o.l.w w w 5     r r       @ o           ",
"    o     , ..V.V.V.V.V.e.a w w       ; w ] l.l.l.l.l.7.{ c f w a.l.Q C w             o             ",
"  o @ @ o w 0.V.V...N w w ;           w R l.l.l.l.l.l.l.l.Q Q A a l.Q Q n 4         @ ; @           ",
"    @     w w w w 4 =     @           w w w w w w w w w w w w w w w w w w w           & ; o       @ ",
"                                    @ ; @   + @       & @ o         <           & @   @ , ; o       ",
"                                      @     @     4 ;               9           o o   @ & @ + ;     ",
"                                            @ + @ s 9               @   o                           ",
"                                                  @                     @                           "
};
