/* XPM */
static char *e43d8cfe3e2d4dc0d4304df17fe99634bQdFf22dxoHNXRR7[] = {
/* columns rows colors chars-per-pixel */
"50 50 88 1 ",
"  c gray79",
". c #C5C5C5",
"X c #B9B9B9",
"o c #AAAAAA",
"O c gray62",
"+ c #9A9A9A",
"@ c gray59",
"# c gray58",
"$ c #939393",
"% c #979797",
"& c #9B9B9B",
"* c gray63",
"= c gray67",
"- c #B7B7B7",
"; c gray75",
": c #C6C6C6",
"> c #CACACA",
", c #C3C3C3",
"< c #C0C0C0",
"1 c #BCBCBC",
"2 c #AFAFAF",
"3 c #C8C8C8",
"4 c gray69",
"5 c #B1B1B1",
"6 c gray73",
"7 c #AEAEAE",
"8 c gray70",
"9 c #C1C1C1",
"0 c gray72",
"q c gray74",
"w c gray78",
"e c gray",
"r c #B6B6B6",
"t c #B2B2B2",
"y c #B4B4B4",
"u c #ACACAC",
"i c gray76",
"p c gray68",
"a c gray77",
"s c gray71",
"d c #BBBBBB",
"f c #D5D5D5",
"g c #CECECE",
"h c #DADADA",
"j c #D0D0D0",
"k c gray81",
"l c #D8D8D8",
"z c #D7D7D7",
"x c #CDCDCD",
"c c #959595",
"v c gray65",
"b c gray60",
"n c #929292",
"m c #A0A0A0",
"M c #A5A5A5",
"N c gray66",
"B c #A9A9A9",
"V c LightGray",
"C c gray82",
"Z c gray86",
"A c #D2D2D2",
"S c #9F9F9F",
"D c gray85",
"F c gray83",
"G c gray55",
"H c gray64",
"J c gray84",
"K c #A7A7A7",
"L c #989898",
"P c gray80",
"I c #2C2C2D",
"U c #2D2D2F",
"Y c #2E2E30",
"T c #272729",
"R c #2A2A2C",
"E c #303031",
"W c #2C2C2C",
"Q c gray12",
"! c #2A2A2A",
"~ c #2E2C2D",
"^ c #323234",
"/ c #2C2C2E",
"( c #2C2D2F",
") c #333334",
"_ c #2F2F30",
"` c #252526",
"' c #2C2D2E",
"] c #2C2E2F",
/* pixels */
"     .XoO+@#$$#%&*=-;:>                           ",
"                                                  ",
"                                                  ",
",                       <:                        ",
"12                                                ",
" 34;                                             3",
"   ,5                                             ",
"     67,                   8                      ",
"         90<                 :1q3                 ",
"            3q1w       e.       .5Xw              ",
"           :    r3:   > 3t        <=y3            ",
"                  yw      -         euX           ",
"       ,     3  3  -e      y          X5       i  ",
"                    t,                 :3       : ",
"0           3       .p      >           p       t ",
"=u      .            =a     X           =i      r ",
",=t               :  =0     s           7r      4 ",
" ==                  =r     w           us     w: ",
" =u>                a=d    s            =<    3X  ",
"a==                 7=    4             p    9a   ",
"uu:               w==w  q             1=  w;      ",
"=d               0=23  3           wy=r           ",
"0              3==6              :7=4w            ",
"             6==9              ,=uq               ",
"           r=5<              :48.                 ",
"        385,                ri                    ",
"       0y                 .e       d              ",
"     <t                 aa                        ",
"    7:                3q       6      ;           ",
"  35   3          i  q3                          f",
" qs      :3        .a                          ghh",
"2     99    w   : w              e           jhhhh",
"           9.                           >klhhhhhh-",
"    a                   3:a,,,ii9<e6egzhhhhhhhhxch",
"      >          3-vbn$+mMNu4y0; fhhhhhhhhhhhhBnfh",
"              8*:hhhhhhhhhhhhhhhhhhhhhhhhhhh0nnVhh",
"          .t-Chhhhhhhhhhhhhhhhhhhhhhhhhhhh3%nn,hhh",
"       ,5whhhhhhhhhhhZhhhhhhhhhhhhhhhhhhdcnnnwhhhh",
"     s4hhhhhhhhhhhArslhhhhhhhhhhhhhhhhi%nnn$zhhhhh",
"  .SAhhhhhhhhhhh6<DhhhhhhhhhhhhhZFeMnnnnn#3hhhhhhh",
"u%qhhhhhhhhhhhjehhhhhhhhhhA8%nnnnnnnGn#HVhhhhhhhht",
"ChhhhhhhhhhJ9<Dhhhhhhhhhw@nnnnnnn$m0jhhhhhhhhhhhd=",
"hhhhhhhhfeuihhhhhhhhhhhKnnn$p1>lhhzhhhDhhhhhhhh;=p",
"hhhhgXXaVhhhhhhhhhhhhhbnthhhhhhhhJhhhhhhhhhhhD7=ih",
"h.Chhhhhhhhhhhh3hhhhknshhhhhhhhhhhhhhhhhhhhgu7Vhhh",
"2DhhhhhhhhhhhFyhhhhCn-hhhhhhhhhhhhhhDhhhhl4ujhhhhh",
"Dhhhhhhhhhhhx5hhhhhnLhhhhhhhhhhhhhhhhhhhfu1Zhhhhhh",
"hhhhhhhhhhJuahhhhFn$hhhhhhhhhhhhhhhhhhhZ=fhhhhhhhh",
"hhhhhhhhfdPhhhhhC#nzhhhhhhhhhhhhhhhhhhD2hhhhhhhhhh",
"IUIIYUYTRUEYIIIWQQ!WWW~EI^IIUWW/(/IY)_``Y(II']'I/_"
};
